<?xml version="1.0" standalone="no"?>
<!DOCTYPE svg PUBLIC "-//W3C//DTD SVG 1.1//EN" "http://www.w3.org/Graphics/SVG/1.1/DTD/svg11.dtd" >
<svg xmlns="http://www.w3.org/2000/svg">
<metadata></metadata>
<defs>
<font id="omneshairline" horiz-adv-x="1167" >
<font-face units-per-em="2048" ascent="1638" descent="-410" />
<missing-glyph horiz-adv-x="389" />
<glyph unicode="&#xfb01;" horiz-adv-x="884" d="M18 946v2q0 6 13 6h200v136q0 160 61.5 238.5t170.5 78.5q94 0 149 -55q17 -17 17 -27q0 -8 -8 -8q-23 38 -66.5 57t-91.5 19q-101 0 -158 -75t-57 -231v-133h260q12 0 12 -6v-2q0 -6 -12 -6h-260v-930q0 -12 -6 -12h-2q-9 0 -9 12v930h-200q-13 0 -13 6zM696 1280 q0 23 23 23q20 0 20 -23t-22 -23q-21 0 -21 23zM709 8v938q0 10 6 10h4q6 0 6 -10v-938q0 -10 -6 -10h-4q-6 0 -6 10z" />
<glyph unicode="&#xfb02;" horiz-adv-x="884" d="M18 946v2q0 6 13 6h200v136q0 160 61.5 238.5t170.5 78.5q94 0 149 -55q17 -17 17 -27q0 -8 -8 -8q-23 38 -66.5 57t-91.5 19q-101 0 -158 -75t-57 -231v-133h260q12 0 12 -6v-2q0 -6 -12 -6h-260v-930q0 -12 -6 -12h-2q-9 0 -9 12v930h-200q-13 0 -13 6zM709 10v1362 q0 4 6 4q10 0 10 -24v-1342q0 -12 -6 -12h-2q-8 0 -8 12z" />
<glyph horiz-adv-x="2048" />
<glyph horiz-adv-x="2048" />
<glyph unicode="&#xd;" horiz-adv-x="2048" />
<glyph unicode=" "  horiz-adv-x="389" />
<glyph unicode="&#x09;" horiz-adv-x="389" />
<glyph unicode="&#xa0;" horiz-adv-x="389" />
<glyph unicode="!" horiz-adv-x="405" d="M178 20v5q0 24 23 24h4q22 0 22 -24v-5q0 -24 -22 -24h-4q-23 0 -23 24zM195 1317q0 10 6 10h4q6 0 6 -10v-963q0 -26 -6 -26h-2q-6 0 -6 26z" />
<glyph unicode="&#x22;" horiz-adv-x="557" d="M162 1315q0 12 10 12t10 -12l-4 -375q0 -12 -6 -12h-2q-6 0 -6 12zM377 1315q0 12 10 12t10 -12l-4 -375q0 -12 -6 -12h-2q-6 0 -6 12z" />
<glyph unicode="#" horiz-adv-x="1277" d="M55 428v2q0 6 11 6h282l139 453h-270q-10 0 -10 6v2q0 6 10 6h275l129 422q2 2 6 2q11 0 6 -16l-125 -408h410l129 422q2 2 6 2q11 0 6 -16l-125 -408h278q11 0 11 -6v-2q0 -6 -11 -6h-282l-139 -453h270q10 0 10 -6v-2q0 -6 -10 -6h-275l-129 -422q-2 -2 -6 -2 q-11 0 -6 16l125 408h-410l-129 -422q-2 -2 -6 -2q-11 0 -6 16l125 408h-278q-11 0 -11 6zM365 436h409l139 453h-409z" />
<glyph unicode="$" horiz-adv-x="1069" d="M102 266q0 13 13 13q3 -43 28.5 -87t74 -86.5t133 -70t192.5 -29.5v666q-57 13 -91.5 22t-83 24.5t-78 31t-63 40t-51.5 52.5t-30.5 67t-12.5 86q0 156 114.5 248.5t295.5 89.5v164q0 10 6 10h2q6 0 6 -10v-164q199 -6 309 -116q32 -32 52 -70.5t20 -59.5q0 -12 -12 -12 q-9 42 -34.5 82t-68 76.5t-111.5 59.5t-155 26v-635q58 -14 92.5 -23t85 -26t80.5 -33.5t65.5 -43t55 -57.5t32.5 -73.5t13 -93.5q0 -154 -117.5 -248.5t-306.5 -93.5v-170q0 -10 -6 -10h-2q-6 0 -6 10v170q-245 5 -365 125q-40 40 -58 82t-18 67zM150 995q0 -50 13.5 -91 t42.5 -71t60.5 -51.5t82 -40t91 -29.5t103.5 -26v633q-174 3 -283.5 -85.5t-109.5 -238.5zM557 6q182 -2 295 88.5t113 239.5q0 48 -12 88.5t-30 69.5t-51.5 54.5t-62.5 41.5t-77.5 32t-83 25.5t-91.5 22.5v-662z" />
<glyph unicode="%" horiz-adv-x="1335" d="M104 1061v4q0 114 75.5 193t189.5 79q115 0 190.5 -79t75.5 -193v-4q0 -114 -75 -193.5t-189 -79.5q-115 0 -191 79.5t-76 193.5zM121 1061q0 -108 71 -183t179 -75q107 0 177 75t70 183v4q0 108 -70.5 183t-178.5 75q-107 0 -177.5 -75.5t-70.5 -182.5v-4zM152 6 q0 6 8 17l1016 1304q8 0 8 -8q0 -5 -8 -16l-1016 -1305q-8 0 -8 8zM700 260v4q0 114 75.5 193.5t189.5 79.5q115 0 190.5 -79.5t75.5 -193.5v-4q0 -114 -75 -193t-189 -79q-115 0 -191 79t-76 193zM717 260q0 -108 71 -183t179 -75q107 0 177 75t70 183v4q0 108 -70.5 183 t-178.5 75q-107 0 -177.5 -75.5t-70.5 -182.5v-4z" />
<glyph unicode="&#x26;" horiz-adv-x="1267" d="M70 336q0 87 32.5 158.5t90 121t123 82.5t145.5 56q-156 153 -156 293q0 125 78.5 207.5t208.5 82.5q123 0 198.5 -81t75.5 -187q0 -62 -21 -111.5t-54.5 -82.5t-85.5 -58.5t-102.5 -40.5t-115.5 -28l480 -461q64 100 113.5 224.5t70.5 231.5q5 27 12 27q4 0 8 -4 q-25 -128 -76.5 -258.5t-117.5 -231.5l297 -270q1 -3 -1 -5.5t-5 -2.5q-9 0 -17 8l-282 258q-89 -129 -212 -202.5t-272 -73.5q-191 0 -303 97.5t-112 250.5zM86 336q0 -146 107 -240t292 -94q147 0 267.5 72.5t205.5 199.5l-487 469q-64 -20 -116 -42.5t-104 -58t-87 -77 t-56.5 -100.5t-21.5 -129zM322 1047q0 -145 155 -287q65 13 113 27t99.5 39t84.5 56t54.5 79t21.5 108q0 99 -70.5 176.5t-187.5 77.5q-123 0 -196.5 -78t-73.5 -198z" />
<glyph unicode="'" horiz-adv-x="342" d="M162 1315q0 12 10 12t10 -12l-4 -375q0 -12 -6 -12h-2q-6 0 -6 12z" />
<glyph unicode="(" horiz-adv-x="718" d="M158 475q0 -214 67.5 -409t184.5 -312q55 -55 117.5 -90t92.5 -43t42 -8q6 0 6 6q0 4 -2 6q-208 41 -350 279.5t-142 570.5t142 570.5t350 279.5q2 2 2 6q0 6 -6 6q-12 0 -42 -8t-92.5 -43t-117.5 -90q-117 -117 -184.5 -312t-67.5 -409z" />
<glyph unicode=")" horiz-adv-x="718" d="M51 -381q0 -6 6 -6q12 0 42 8t92.5 43t117.5 90q117 117 184.5 312t67.5 409t-67.5 409t-184.5 312q-55 55 -117.5 90t-92.5 43t-42 8q-6 0 -6 -6q0 -4 2 -6q208 -41 350 -279.5t142 -570.5t-142 -570.5t-350 -279.5q-2 -2 -2 -6z" />
<glyph unicode="*" horiz-adv-x="772" d="M129 1157q0 7 10 4l240 -76l2 254q0 11 6 11t6 -11l2 -254l240 76q10 3 10 -4q0 -4 -6 -6l-240 -80l148 -205q6 -8 2 -12q-6 -6 -12 6l-150 201l-149 -201q-3 -5 -7.5 -6.5t-5.5 0.5q-4 4 2 12l148 205l-240 80q-6 2 -6 6z" />
<glyph unicode="+" horiz-adv-x="974" d="M72 537v2q0 6 10 6h397v395q0 10 6 10h4q7 0 7 -10v-395h397q10 0 10 -6v-2q0 -7 -10 -7h-397v-424q0 -10 -7 -10h-4q-6 0 -6 10v424h-397q-10 0 -10 7z" />
<glyph unicode="," horiz-adv-x="307" d="M39 -250l117 299q6 14 12 14h2q8 0 8 -8v-2q0 -4 -4 -16l-123 -291q-2 -3 -7.5 -1.5t-4.5 5.5z" />
<glyph unicode="-" horiz-adv-x="647" d="M72 537v2q0 6 10 6h483q10 0 10 -6v-2q0 -7 -10 -7h-483q-10 0 -10 7z" />
<glyph unicode="." horiz-adv-x="307" d="M129 20v5q0 24 23 24h4q22 0 22 -24v-5q0 -24 -22 -24h-4q-23 0 -23 24z" />
<glyph unicode="/" horiz-adv-x="620" d="M40.5 -372.5q-2.5 4.5 0.5 12.5l516 1685q2 2 6 2q11 0 6 -16l-516 -1686q-2 -2 -6 -2t-6.5 4.5z" />
<glyph unicode="0" horiz-adv-x="1259" d="M133 606v113q0 278 137.5 448t360.5 170q222 0 358.5 -170t136.5 -448v-113q0 -278 -137 -448t-360 -170q-222 0 -359 170t-137 448zM150 606q0 -270 132.5 -437t346.5 -167q215 0 348 167t133 437v113q0 270 -132.5 437t-346.5 167q-215 0 -348 -167t-133 -437v-113z " />
<glyph unicode="1" horiz-adv-x="636" d="M41 1204q0 8 8 8q29 -53 119 -53q76 0 133.5 48.5t60.5 119.5h7q10 0 10 -14v-1305q0 -10 -6 -10h-4q-7 0 -7 10v1260q-23 -56 -76 -89.5t-120 -33.5q-74 0 -115 41q-10 10 -10 18z" />
<glyph unicode="2" horiz-adv-x="1024" d="M84 1006q0 8 9.5 37t36.5 78t63 85q131 131 329 131q96 0 172.5 -28t123.5 -75.5t72 -107.5t25 -127q0 -43 -9 -80.5t-23 -67t-42 -58.5t-53.5 -50t-71 -47.5t-81 -45t-96.5 -48.5q-81 -40 -134 -70.5t-114 -78.5t-96.5 -98t-59.5 -121t-24 -156v-64h829q10 0 10 -6v-2 q0 -6 -10 -6h-823q-13 0 -18 5.5t-5 19.5v57q0 86 24 158t60 123t98 99.5t116 80t136 71.5q58 29 89.5 45t78 42t71 46t54 49t44 57.5t24.5 66t10 79.5q0 136 -97 230t-280 94q-173 0 -283.5 -95t-140.5 -233q-2 -3 -5.5 -2t-6 4.5t-2.5 8.5z" />
<glyph unicode="3" horiz-adv-x="1017" d="M33 258q0 10 12 10q11 -44 44.5 -88.5t86 -84.5t133 -65.5t172.5 -25.5q198 0 316 96.5t118 253.5q0 152 -113 244t-302 92h-191q-10 2 -10 6v2q0 2 2.5 3.5t4.5 2.5l3 1h191q160 0 263 84.5t103 216.5q0 138 -103.5 227.5t-283.5 89.5q-134 0 -251 -69.5t-148 -153.5 q-4 -1 -8 2t-4 8q0 7 16.5 33.5t36.5 46.5q65 65 159 106t199 41q186 0 295 -93.5t109 -237.5q0 -125 -90 -209.5t-220 -98.5q157 -16 258 -106.5t101 -237.5q0 -163 -123.5 -264.5t-327.5 -101.5q-117 0 -211.5 38.5t-154.5 98.5q-28 28 -48 59t-27 49t-7 25z" />
<glyph unicode="4" horiz-adv-x="1093" d="M59 446v5q0 3 11 20l675 852q11 14 23 14q14 0 14 -14v-872h250q10 0 10 -7v-2q0 -6 -10 -6h-250v-428q0 -10 -6 -10h-4q-6 0 -6 10v428h-690q-17 0 -17 10zM74 451h692v874z" />
<glyph unicode="5" horiz-adv-x="1050" d="M86 223q0 5 3 8t7 2q44 -99 162.5 -165t267.5 -66q198 0 314 108.5t116 299.5q0 167 -117 270.5t-302 103.5q-222 0 -375 -106q-19 0 -19 18v604q0 14 5 19.5t18 5.5h721q10 0 10 -6v-2q0 -6 -10 -6h-727v-617q148 105 377 105q193 0 314.5 -107.5t121.5 -281.5 q0 -198 -120.5 -310t-326.5 -112q-236 0 -383 147q-23 24 -40 51.5t-17 36.5z" />
<glyph unicode="6" d="M133 571v154q0 295 129 453.5t359 158.5q191 0 311 -120q33 -33 51 -67t18 -48q0 -10 -12 -10q-25 89 -123 160t-245 71q-221 0 -346 -155t-125 -443v-154q0 -50 2 -79q16 53 53 101.5t94 90t142 66t186 24.5q192 0 312 -105t120 -270v-4q0 -178 -124.5 -292.5 t-318.5 -114.5q-99 0 -184.5 35.5t-153 105t-106.5 183t-39 259.5zM158 457q28 -223 154.5 -339t303.5 -116q188 0 307 111t119 282v4q0 159 -114.5 260t-300.5 101q-185 0 -313.5 -87t-155.5 -216z" />
<glyph unicode="7" horiz-adv-x="960" d="M57 1317v2q0 6 11 6h823q12 0 12 -10v-2q0 -7 -8 -23l-612 -1278q-7 -14 -15 -14t-8 6l629 1307h-821q-11 0 -11 6z" />
<glyph unicode="8" horiz-adv-x="1144" d="M92 356q0 129 104.5 227.5t290.5 116.5q-164 17 -252 102t-88 204q0 145 116 238t308 93q193 0 309.5 -93t116.5 -238q0 -119 -88 -204t-252 -102q186 -18 291 -116.5t105 -227.5q0 -165 -129.5 -266.5t-350.5 -101.5q-222 0 -351.5 101.5t-129.5 266.5zM109 356 q0 -161 123.5 -257.5t340.5 -96.5q216 0 339.5 97t123.5 257q0 146 -125 241t-338 95q-214 0 -339 -94.5t-125 -241.5zM162 1006q0 -134 111.5 -216.5t299.5 -82.5q186 0 298 82.5t112 216.5q0 139 -111.5 228t-300.5 89q-187 0 -298 -89t-111 -228z" />
<glyph unicode="9" d="M109 911v15q0 180 123.5 295.5t318.5 115.5q99 0 184.5 -35.5t153 -105t106.5 -183t39 -259.5v-154q0 -294 -127 -453t-350 -159q-211 0 -336 125q-39 39 -56.5 78t-17.5 59q0 10 13 10q13 -101 122.5 -179.5t274.5 -78.5q214 0 337.5 155.5t123.5 442.5v154q0 30 -2 61 q-39 -120 -161 -202.5t-314 -82.5q-193 0 -312.5 106t-119.5 275zM125 911q0 -163 114.5 -264.5t301.5 -101.5t317 90t154 219q-24 230 -152 349.5t-309 119.5q-188 0 -307 -111.5t-119 -285.5v-15z" />
<glyph unicode=":" horiz-adv-x="327" d="M139 20v5q0 24 23 24h4q22 0 22 -24v-5q0 -24 -22 -24h-4q-23 0 -23 24zM139 809v4q0 11 6.5 18t16.5 7h4q22 0 22 -25v-4q0 -25 -22 -25h-4q-10 0 -16.5 7t-6.5 18z" />
<glyph unicode=";" horiz-adv-x="327" d="M49 -250l117 299q6 14 12 14h2q8 0 8 -8v-2q0 -4 -4 -16l-123 -291q-2 -3 -7.5 -1.5t-4.5 5.5zM139 809v4q0 11 6.5 18t16.5 7h4q22 0 22 -25v-4q0 -25 -22 -25h-4q-10 0 -16.5 7t-6.5 18z" />
<glyph unicode="&#x3c;" horiz-adv-x="907" d="M84 537q0 9 12 16l670 397q8 0 8 -8q0 -5 -12 -12l-664 -393l664 -394q12 -7 12 -12q0 -8 -8 -8l-670 397q-12 7 -12 17z" />
<glyph unicode="=" horiz-adv-x="974" d="M96 311v2q0 6 10 6h762q11 0 11 -6v-2q0 -6 -11 -6h-762q-10 0 -10 6zM96 737v2q0 6 10 6h762q11 0 11 -6v-2q0 -6 -11 -6h-762q-10 0 -10 6z" />
<glyph unicode="&#x3e;" horiz-adv-x="907" d="M133 131q0 5 12 12l664 394l-664 393q-12 7 -12 12q0 8 8 8l670 -397q12 -7 12 -16q0 -10 -12 -17l-670 -397q-8 0 -8 8z" />
<glyph unicode="?" horiz-adv-x="913" d="M74 1020q0 9 6.5 36t30.5 76.5t61 86.5q118 118 317 118q159 0 260 -84t101 -217q0 -52 -16 -96t-48 -79.5t-62.5 -60.5t-76.5 -55q-48 -31 -73 -49t-62 -54.5t-56 -73t-33.5 -95t-14.5 -129.5q0 -16 -9 -16q-8 0 -8 16q0 54 8 100.5t18.5 80t32 66t37.5 52t47.5 44 t49 36.5t53.5 35q92 59 144.5 122.5t52.5 155.5q0 126 -97.5 206.5t-247.5 80.5q-174 0 -278 -91t-123 -224q-14 0 -14 12zM381 20v5q0 24 22 24h5q22 0 22 -24v-5q0 -24 -22 -24h-5q-22 0 -22 24z" />
<glyph unicode="@" horiz-adv-x="1454" d="M88 662q0 143 48 268t132.5 214.5t205 141t261.5 51.5q291 0 465 -167t174 -443q0 -168 -58.5 -266.5t-174.5 -98.5q-73 0 -119 55.5t-51 145.5q-21 -90 -87.5 -146.5t-168.5 -56.5q-116 0 -194.5 83t-78.5 206q0 127 79 212t198 85q88 0 152 -45.5t96 -122.5v133 q0 25 10 25q6 0 6 -4v-318q0 -117 43 -177t115 -60q108 0 162.5 95.5t54.5 254.5q0 270 -169 433t-454 163q-183 0 -327.5 -86t-224 -236.5t-79.5 -338.5q0 -192 80.5 -342t229 -234t342.5 -84q119 0 230 37t179 90q9 6 15 6q8 0 8 -8q-71 -58 -187.5 -98.5t-244.5 -40.5 q-198 0 -350.5 86t-235 239t-82.5 349zM459 649q0 -115 74.5 -194.5t181.5 -79.5q112 0 182 76.5t70 183.5v102q-29 90 -92.5 142.5t-155.5 52.5q-112 0 -186 -80.5t-74 -202.5z" />
<glyph unicode="A" d="M27 4l542 1313q3 10 15 10q11 0 14 -10l543 -1313q-1 -4 -5 -6h-2q-4 0 -6 2q-4 4 -8 12l-211 510h-651l-211 -510q-7 -14 -13 -14q-2 0 -4 1zM264 537h639l-319 774z" />
<glyph unicode="B" horiz-adv-x="1179" d="M168 25v1275q0 14 4.5 19.5t17.5 5.5h406q214 0 320 -81t106 -236q0 -273 -311 -314q192 -15 286.5 -99.5t94.5 -244.5q0 -184 -118.5 -267t-357.5 -83h-426q-13 0 -17.5 5.5t-4.5 19.5zM184 14h432q230 0 344.5 80t114.5 256q0 171 -117.5 253.5t-351.5 82.5h-422v-672z M184 700h422q199 0 299.5 81t100.5 227q0 148 -102.5 225.5t-307.5 77.5h-412v-611z" />
<glyph unicode="C" horiz-adv-x="1329" d="M92 659q0 143 46 268t128.5 215.5t202.5 142.5t262 52q250 0 397 -147q45 -45 73 -98.5t28 -77.5q0 -8 -10 -8q-15 60 -51 113.5t-93.5 100.5t-146.5 75t-197 28q-184 0 -327 -88t-219 -238.5t-76 -337.5q0 -188 73.5 -336t217.5 -234.5t337 -86.5q102 0 185.5 24 t135.5 60t90.5 84.5t56 89.5t26.5 82q10 0 10 -8q0 -29 -28.5 -91t-86.5 -120t-158.5 -96.5t-230.5 -38.5q-198 0 -346 88t-223.5 239t-75.5 344z" />
<glyph unicode="D" horiz-adv-x="1308" d="M168 25v1275q0 14 4.5 19.5t17.5 5.5h314q336 0 524.5 -177t188.5 -482q0 -307 -192 -486.5t-531 -179.5h-304q-13 0 -17.5 5.5t-4.5 19.5zM184 14h310q330 0 518 176t188 476q0 299 -184 472t-512 173h-320v-1297z" />
<glyph unicode="E" horiz-adv-x="1097" d="M168 25v1275q0 14 4.5 19.5t17.5 5.5h799q10 0 10 -6v-2q0 -6 -10 -6h-805v-623h578q10 0 10 -6v-2q0 -6 -10 -6h-578v-660h838q10 0 10 -6v-2q0 -6 -10 -6h-832q-13 0 -17.5 5.5t-4.5 19.5z" />
<glyph unicode="F" horiz-adv-x="1030" d="M168 8v1292q0 14 4.5 19.5t17.5 5.5h789q10 0 10 -6v-2q0 -6 -10 -6h-795v-668h572q10 0 10 -6v-2q0 -6 -10 -6h-572v-621q0 -10 -6 -10h-4q-6 0 -6 10z" />
<glyph unicode="G" horiz-adv-x="1366" d="M92 659q0 143 45.5 268t126 215.5t197.5 142.5t254 52q246 0 391 -145q30 -30 52.5 -66t31 -58t8.5 -30q0 -12 -10 -12q-10 37 -31 74.5t-60 78.5t-90 72t-127 51.5t-165 20.5q-133 0 -247 -51t-192.5 -140t-122.5 -211.5t-44 -261.5q0 -187 72.5 -336t210.5 -235 t319 -86q233 0 383.5 145.5t150.5 370.5v60h-495q-11 0 -11 6v2q0 6 11 6h493q17 0 17 -21v-569q0 -4 -7 -4q-8 0 -8 25v370q-37 -182 -182.5 -293.5t-351.5 -111.5q-187 0 -328.5 87.5t-216 239.5t-74.5 344z" />
<glyph unicode="H" horiz-adv-x="1339" d="M168 8v1309q0 10 6 10h4q6 0 6 -10v-645h971v645q0 10 6 10h4q6 0 6 -10v-1309q0 -10 -6 -10h-4q-6 0 -6 10v649h-971v-649q0 -10 -6 -10h-4q-6 0 -6 10z" />
<glyph unicode="I" horiz-adv-x="393" d="M188 8v1309q0 10 7 10h4q6 0 6 -10v-1309q0 -10 -6 -10h-4q-7 0 -7 10z" />
<glyph unicode="J" horiz-adv-x="890" d="M43 211q0 11 10 8q32 -98 122 -157.5t218 -59.5q334 0 334 412v903q0 10 6 10h4q6 0 6 -10v-905q0 -424 -350 -424q-76 0 -139.5 20.5t-101 50t-63.5 62.5t-36 56t-10 34z" />
<glyph unicode="K" horiz-adv-x="974" d="M168 8v1309q0 10 6 10h4q6 0 6 -10v-637l684 641q8 7 13 7q4 0 7 -5q2 -2 1 -4l-684 -641l710 -672q1 -1 1 -2q0 -3 -5 -6h-3q-7 0 -15 8l-709 670v-668q0 -10 -6 -10h-4q-6 0 -6 10z" />
<glyph unicode="L" horiz-adv-x="925" d="M168 25v1292q0 10 6 10h4q6 0 6 -10v-1303h676q10 0 10 -6v-2q0 -6 -10 -6h-670q-13 0 -17.5 5.5t-4.5 19.5z" />
<glyph unicode="M" horiz-adv-x="1474" d="M168 8v1307q0 12 10 12h4q10 0 15 -8l540 -877l541 877q5 8 14 8h4q11 0 11 -12v-1307q0 -10 -7 -10h-4q-6 0 -6 10v1301l-538 -875q-4 -8 -15 -8q-10 0 -14 8l-539 875v-1301q0 -10 -6 -10h-4q-6 0 -6 10z" />
<glyph unicode="N" horiz-adv-x="1370" d="M168 8v1307q0 12 12 12h6q8 0 19 -16l981 -1291v1297q0 10 6 10h4q6 0 6 -10v-1311q0 -8 -10 -8h-4q-8 0 -19 16l-985 1297v-1303q0 -10 -6 -10h-4q-6 0 -6 10z" />
<glyph unicode="O" horiz-adv-x="1460" d="M92 659q0 141 46 265t128 215.5t203 144.5t264 53q190 0 336 -90t222.5 -242t76.5 -341q0 -141 -45.5 -264.5t-127 -215t-202.5 -144t-264 -52.5t-263 52t-201.5 142t-127 213t-45.5 264zM109 659q0 -184 75 -332.5t217.5 -236.5t327.5 -88q140 0 257.5 52t197 141.5 t124 210.5t44.5 258t-44 257.5t-123 209.5t-196 140.5t-256 51.5q-140 0 -258 -52t-197.5 -142t-124 -211.5t-44.5 -258.5z" />
<glyph unicode="P" horiz-adv-x="1083" d="M168 8v1292q0 14 4.5 19.5t17.5 5.5h336q238 0 362 -102.5t124 -288.5t-122.5 -288.5t-357.5 -102.5h-348v-535q0 -10 -6 -10h-4q-6 0 -6 10zM184 557h348q227 0 345 98.5t118 278.5t-119.5 278.5t-349.5 98.5h-342v-754z" />
<glyph unicode="Q" horiz-adv-x="1460" d="M92 659q0 141 46 265t128 215.5t203 144.5t264 53q190 0 336 -90t222.5 -242t76.5 -341q0 -148 -49.5 -276.5t-140.5 -221.5l157 -160q1 -3 -1 -5.5t-5 -2.5q-6 0 -18 12l-144 146q-179 -168 -438 -168q-143 0 -263 52t-201.5 142t-127 213t-45.5 264zM109 659 q0 -184 75 -332.5t217.5 -236.5t327.5 -88q256 0 426 164l-362 364q-10 10 -5 15q6 5 15 -4l362 -365q90 91 138.5 217.5t48.5 270.5q0 137 -44 257.5t-123 209.5t-196 140.5t-256 51.5q-140 0 -258 -52t-197.5 -142t-124 -211.5t-44.5 -258.5z" />
<glyph unicode="R" horiz-adv-x="1114" d="M168 8v1292q0 14 4.5 19.5t17.5 5.5h345q232 0 351.5 -94.5t119.5 -269.5q0 -174 -119 -270.5t-348 -96.5h-166l653 -584q1 -3 -1 -6.5t-5 -3.5q-5 0 -16 8l-652 586h-168v-586q0 -10 -6 -10h-4q-6 0 -6 10zM184 608h355q221 0 335.5 92.5t114.5 260.5 q0 169 -114.5 259.5t-339.5 90.5h-351v-703z" />
<glyph unicode="S" horiz-adv-x="1069" d="M98 262q0 12 13 12q3 -44 29.5 -89t76.5 -87.5t138 -69t200 -26.5q181 0 293.5 90.5t112.5 239.5q0 49 -12.5 89.5t-31 70t-52.5 55t-64.5 42t-79.5 33t-85 26t-93 22.5q-45 11 -72 17.5t-67 18t-65 22t-57.5 26t-52 31.5t-41 38.5t-33 47.5t-19 57t-7.5 69 q0 155 112 247.5t285 92.5q220 0 336 -116q32 -32 52 -70t20 -59q0 -13 -12 -13q-9 44 -35.5 84.5t-72 77.5t-120 59.5t-168.5 22.5q-165 0 -273 -88.5t-108 -237.5q0 -44 12 -81t30 -64.5t50.5 -51t62.5 -39t77 -31t83 -24.5t91 -22q50 -12 82 -20t77 -21.5t73.5 -27.5 t62.5 -33.5t55 -43.5t40 -54t27.5 -68.5t8.5 -83.5q0 -154 -117 -249t-305 -95q-256 0 -381 125q-40 40 -58 82t-18 67z" />
<glyph unicode="T" horiz-adv-x="1093" d="M39 1317v2q0 6 10 6h995q11 0 11 -6v-2q0 -6 -11 -6h-489v-1303q0 -10 -6 -10h-4q-6 0 -6 10v1303h-490q-10 0 -10 6z" />
<glyph unicode="U" horiz-adv-x="1253" d="M147 502v815q0 10 7 10h4q6 0 6 -10v-815q0 -500 463 -500t463 500v815q0 10 6 10h4q6 0 6 -10v-815q0 -514 -479 -514q-480 0 -480 514z" />
<glyph unicode="V" horiz-adv-x="1183" d="M25 1321q2 6 6 6q2 0 5 -2q5 -4 9 -12l547 -1299l547 1299q7 14 13 14q2 0 4 -1q2 -2 3 -5l-553 -1313q-3 -10 -14 -10t-14 10z" />
<glyph unicode="W" horiz-adv-x="1703" d="M86 1323q2 3 6 3l1 1q4 0 8 -5q5 -5 8 -17l333 -1291l392 1016q6 17 18 17t18 -17l392 -1016l333 1291q3 12 8 17t8 5l1 -1q4 0 6 -3l-340 -1313q-3 -12 -16 -12q-14 0 -17 12l-393 1020l-393 -1020q-3 -12 -17 -12q-13 0 -16 12z" />
<glyph unicode="X" horiz-adv-x="1097" d="M31 6l508 676l-486 637q0 8 8 8t13 -8l475 -625l475 625q5 8 12 8q8 0 8 -8l-485 -637l508 -676q0 -8 -8 -8q-7 0 -12 8l-498 664l-498 -664q-5 -8 -12 -8q-3 0 -6 2.5t-2 5.5z" />
<glyph unicode="Y" horiz-adv-x="1048" d="M10 1319q0 4 4 7q2 1 4 1t4 -1q5 -1 9 -7l493 -701l494 701q6 9 12 9q3 0 7 -3q2 -2 2 -4q0 -1 -1 -2l-506 -717v-594q0 -10 -6 -10h-4q-6 0 -6 10v594z" />
<glyph unicode="Z" horiz-adv-x="1110" d="M59 10v4q0 7 11 21l934 1276h-910q-10 0 -10 6v2q0 6 10 6h912q12 0 12 -10v-4q0 -9 -10 -21l-934 -1276h942q10 0 10 -6v-2q0 -6 -10 -6h-944q-13 0 -13 10z" />
<glyph unicode="[" horiz-adv-x="655" d="M195 -350v1650q0 14 4.5 19.5t17.5 5.5h344q10 0 10 -6v-2q0 -6 -10 -6h-350v-1671h350q10 0 10 -7v-2q0 -6 -10 -6h-344q-13 0 -17.5 5.5t-4.5 19.5z" />
<glyph unicode="\" horiz-adv-x="620" d="M51 1311q-5 16 6 16q4 0 6 -2l517 -1685q3 -8 0 -12.5t-7 -4.5t-6 2z" />
<glyph unicode="]" horiz-adv-x="655" d="M84 -367q0 7 10 7h350v1671h-350q-10 0 -10 6v2q0 6 10 6h344q13 0 18 -5.5t5 -19.5v-1650q0 -14 -5 -19.5t-18 -5.5h-344q-10 0 -10 6v2z" />
<glyph unicode="^" horiz-adv-x="1024" d="M319 948q0 1 97 139q89 125 96 125t96 -125q97 -138 97 -139q0 -6 -5 -6q-3 0 -5.5 2.5t-13.5 16.5t-29.5 39.5l-55.5 76.5l-84 117l-84 -117l-55.5 -76.5t-29.5 -39.5t-13.5 -16.5t-5.5 -2.5q-5 0 -5 6z" />
<glyph unicode="_" horiz-adv-x="862" d="M16 -6q0 6 11 6h809q10 0 10 -6v-2q0 -6 -10 -6h-809q-11 0 -11 6v2z" />
<glyph unicode="`" horiz-adv-x="1024" d="M373 1311q0 6 4 6q6 0 88 -66q128 -106 153.5 -128t24.5 -25q-1 -2 -11 4t-51.5 38t-123.5 97q-61 49 -72.5 59t-11.5 15z" />
<glyph unicode="a" horiz-adv-x="1005" d="M78 233q0 104 67.5 165t231.5 91.5t448 30.5h21v82q0 161 -94 255.5t-254 94.5q-137 0 -234 -53t-135 -139q-10 0 -10 10q0 8 16.5 33t40.5 49q115 115 322 115q169 0 266.5 -98t97.5 -267v-600q0 -4 -6 -4q-10 0 -10 25v268q-27 -129 -146.5 -216t-289.5 -87 q-148 0 -240 65t-92 180zM94 233q0 -108 87.5 -169.5t228.5 -61.5q183 0 309.5 109t126.5 280v115h-21q-278 0 -438.5 -29.5t-226.5 -87.5t-66 -156z" />
<glyph unicode="b" horiz-adv-x="1142" d="M152 10v1362q0 4 6 4q10 0 10 -24v-705q41 137 154 228.5t274 91.5q129 0 236 -63.5t168 -174t61 -244.5q0 -219 -130 -358t-335 -139q-89 0 -164.5 25.5t-128.5 69.5t-87.5 99t-47.5 117v-289q0 -12 -6 -12h-2q-8 0 -8 12zM168 399q0 -163 119 -280t309 -117 q199 0 323.5 135.5t124.5 347.5q0 197 -129.5 332t-318.5 135q-161 0 -272.5 -93.5t-155.5 -248.5v-211z" />
<glyph unicode="c" horiz-adv-x="1017" d="M82 479q0 135 57.5 245.5t167 176.5t252.5 66q194 0 307 -113q29 -29 49 -59.5t26.5 -48t6.5 -25.5q0 -12 -10 -12q-12 43 -40.5 83.5t-73 77.5t-114 59.5t-151.5 22.5q-207 0 -334 -136.5t-127 -336.5q0 -204 126.5 -340.5t334.5 -136.5q82 0 151.5 22.5t114 60t73 78 t40.5 83.5q10 0 10 -13q0 -8 -6.5 -25.5t-26.5 -48t-49 -59.5q-112 -112 -307 -112q-215 0 -346 140.5t-131 350.5z" />
<glyph unicode="d" horiz-adv-x="1142" d="M82 485q0 134 61 244.5t168 174t236 63.5q161 0 274 -91.5t154 -228.5v725q0 4 6 4q10 0 10 -24v-1342q0 -12 -6 -12h-2q-8 0 -8 12v289q-13 -62 -47.5 -117t-87.5 -99t-128.5 -69.5t-164.5 -25.5q-205 0 -335 139t-130 358zM98 485q0 -212 125 -347.5t324 -135.5 q190 0 309 117t119 280v211q-44 155 -155.5 248.5t-272.5 93.5q-189 0 -319 -135t-130 -332z" />
<glyph unicode="e" horiz-adv-x="1048" d="M82 479q0 133 59.5 244.5t167 177.5t238.5 66q185 0 304.5 -122.5t119.5 -309.5v-3q0 -16 -17 -16h-856v-37q0 -204 126.5 -340.5t334.5 -136.5q82 0 151.5 22.5t114 60t73 78t40.5 83.5q10 0 10 -13q0 -8 -6.5 -25.5t-26.5 -48t-49 -59.5q-112 -112 -307 -112 q-215 0 -346 140.5t-131 350.5zM100 530h856q0 183 -115.5 302.5t-293.5 119.5q-177 0 -303 -122t-144 -300z" />
<glyph unicode="f" horiz-adv-x="548" d="M18 946v2q0 6 13 6h200v136q0 160 61.5 238.5t170.5 78.5q94 0 149 -55q17 -17 17 -27q0 -8 -8 -8q-23 38 -66.5 57t-91.5 19q-101 0 -158 -75t-57 -231v-133h260q12 0 12 -6v-2q0 -6 -12 -6h-260v-930q0 -12 -6 -12h-2q-9 0 -9 12v930h-200q-13 0 -13 6z" />
<glyph unicode="g" horiz-adv-x="831" d="M-4 -170q0 73 55 135.5t137.5 100.5t176.5 53q-144 39 -144 121q0 37 21.5 65.5t56.5 40.5q-104 30 -167.5 110.5t-63.5 188.5q0 138 101.5 230t256.5 92q143 0 233 -78l144 155q4 4 8 4t6.5 -2.5t1.5 -5.5l-149 -159q102 -89 102 -230q0 -137 -101.5 -229t-256.5 -92 q-43 0 -95 10q-81 -26 -81 -100q0 -31 18 -52.5t67 -38.5t78 -24t107 -22q9 -2 14 -3q361 -68 361 -264q0 -127 -120 -195.5t-339 -68.5q-202 0 -315 68.5t-113 189.5zM12 -170q0 -113 108.5 -178.5t303.5 -65.5q211 0 326.5 64.5t115.5 185.5q0 185 -348 250 q-91 17 -121 25q-101 -15 -187.5 -53.5t-142 -98.5t-55.5 -129zM84 645q0 -131 93 -216t237 -85q146 0 244 87.5t98 219.5q0 130 -93.5 215.5t-236.5 85.5q-148 0 -245 -87.5t-97 -219.5z" />
<glyph unicode="h" horiz-adv-x="1087" d="M152 8v1364q0 4 6 4q10 0 10 -24v-668q26 122 134.5 202.5t244.5 80.5q193 0 295 -118t102 -321v-520q0 -10 -6 -10h-4q-6 0 -6 10v518q0 198 -97 312t-284 114q-153 0 -266 -102.5t-113 -255.5v-586q0 -10 -6 -10h-4q-6 0 -6 10z" />
<glyph unicode="i" horiz-adv-x="335" d="M147 1280q0 23 23 23q20 0 20 -23t-22 -23q-21 0 -21 23zM160 8v938q0 10 6 10h4q6 0 6 -10v-938q0 -10 -6 -10h-4q-6 0 -6 10z" />
<glyph unicode="j" horiz-adv-x="335" d="M-164 -338q0 8 6 8q50 -43 131 -43q90 0 138.5 64t48.5 180v1075q0 10 6 10h4q6 0 6 -10v-1075q0 -123 -52 -190.5t-151 -67.5q-46 0 -82.5 12.5t-50.5 26.5q-4 4 -4 10zM147 1280q0 23 23 23q20 0 20 -23t-22 -23q-21 0 -21 23z" />
<glyph unicode="k" horiz-adv-x="808" d="M152 8v1364q0 4 6 4q10 0 10 -24v-842l557 440q13 11 22 2q2 -2 1 -4l-560 -440l609 -502q2 -5 -6 -7q-10 -1 -19 7l-604 500v-498q0 -10 -6 -10h-4q-6 0 -6 10z" />
<glyph unicode="l" horiz-adv-x="335" d="M160 10v1362q0 4 6 4q10 0 10 -24v-1342q0 -12 -6 -12h-2q-8 0 -8 12z" />
<glyph unicode="m" horiz-adv-x="1757" d="M152 8v944q0 4 6 4q10 0 10 -24v-223q39 117 139 187.5t219 70.5q153 0 245 -78.5t114 -194.5q33 129 133 201t231 72q168 0 266.5 -118t98.5 -317v-524q0 -10 -6 -10h-4q-7 0 -7 10v522q0 193 -93 307.5t-255 114.5q-126 0 -229.5 -76t-128.5 -221v-647q0 -10 -6 -10h-4 q-7 0 -7 10v625q0 130 -92.5 224.5t-255.5 94.5q-117 0 -220 -75.5t-138 -210.5v-658q0 -10 -6 -10h-4q-6 0 -6 10z" />
<glyph unicode="n" horiz-adv-x="1087" d="M152 8v944q0 4 6 4q10 0 10 -24v-223q43 113 146.5 185.5t240.5 72.5q188 0 288.5 -118t100.5 -321v-520q0 -10 -6 -10h-4q-6 0 -6 10v518q0 197 -95.5 311.5t-277.5 114.5q-136 0 -237.5 -73t-149.5 -201v-670q0 -10 -6 -10h-4q-6 0 -6 10z" />
<glyph unicode="o" horiz-adv-x="1120" d="M82 477q0 134 60 246t170.5 178t248.5 66q137 0 247 -66.5t170 -179.5t60 -248q0 -205 -134.5 -345t-342.5 -140q-209 0 -344 141t-135 348zM98 477q0 -130 58.5 -238.5t165 -172.5t239.5 -64q132 0 238 63.5t164.5 171t58.5 236.5q0 200 -131 339.5t-330 139.5 q-133 0 -239.5 -64.5t-165 -173t-58.5 -237.5z" />
<glyph unicode="p" horiz-adv-x="1142" d="M152 -365v1317q0 4 6 4q10 0 10 -24v-285q41 137 154 228.5t274 91.5q129 0 236 -63.5t168 -174t61 -244.5q0 -219 -130 -358t-335 -139q-89 0 -164.5 25.5t-128.5 69.5t-87.5 99t-47.5 117v-664q0 -12 -6 -12h-2q-8 0 -8 12zM168 399q0 -163 119 -280t309 -117 q199 0 323.5 135.5t124.5 347.5q0 197 -129.5 332t-318.5 135q-161 0 -272.5 -93.5t-155.5 -248.5v-211z" />
<glyph unicode="q" horiz-adv-x="1142" d="M82 485q0 134 61 244.5t168 174t236 63.5q161 0 274 -91.5t154 -228.5v285q0 24 10 24q6 0 6 -4v-1317q0 -12 -8 -12h-2q-6 0 -6 12v664q-13 -62 -47.5 -117t-87.5 -99t-128.5 -69.5t-164.5 -25.5q-205 0 -335 139t-130 358zM98 485q0 -212 125 -347.5t324 -135.5 q190 0 309 117t119 280v211q-44 155 -155.5 248.5t-272.5 93.5q-189 0 -319 -135t-130 -332z" />
<glyph unicode="r" horiz-adv-x="626" d="M152 10v942q0 4 6 4q10 0 10 -24v-270q23 158 101 231.5t186 73.5q34 0 78.5 -14t44.5 -27q0 -8 -7 -8q-15 13 -50 23.5t-66 10.5q-134 0 -210.5 -112t-76.5 -326v-504q0 -12 -6 -12h-2q-8 0 -8 12z" />
<glyph unicode="s" horiz-adv-x="858" d="M63 166q0 10 11 10q34 -78 125.5 -126t232.5 -48q157 0 251.5 70t94.5 174q0 27 -6.5 50t-15.5 41t-28 34t-33.5 27t-43.5 22.5t-46 17.5t-53.5 14.5t-54 12.5t-57.5 12q-160 32 -221 60q-127 58 -127 184q0 106 95.5 176t242.5 70q95 0 172.5 -32t126.5 -81 q10 -10 20.5 -26t10.5 -23q0 -10 -10 -10q-27 65 -119 111t-201 46q-140 0 -230.5 -66t-90.5 -165q0 -46 21 -82.5t40.5 -56t77 -40t79.5 -25.5t100 -21q11 -3 17 -4q49 -10 78 -16.5t71.5 -18.5t67 -23.5t53.5 -30.5t44.5 -40.5t26 -52t10.5 -66.5q0 -109 -100 -182.5 t-263 -73.5q-213 0 -317 104q-52 52 -52 74z" />
<glyph unicode="t" horiz-adv-x="612" d="M8 946v2q0 6 12 6h187v234q0 12 6 12h2q8 0 8 -12v-234h328q12 0 12 -6v-2q0 -6 -12 -6h-328v-674q0 -143 49 -203.5t146 -60.5q124 0 172 113q8 0 8 -11q0 -24 -37 -61q-55 -55 -143 -55q-104 0 -157.5 64t-53.5 214v674h-187q-12 0 -12 6z" />
<glyph unicode="u" horiz-adv-x="1087" d="M143 426v520q0 10 7 10h4q6 0 6 -10v-518q0 -197 95 -311.5t277 -114.5q136 0 238 73t150 201v670q0 10 6 10h4q6 0 6 -10v-944q0 -4 -6 -4q-10 0 -10 25v223q-43 -113 -147 -185.5t-241 -72.5q-188 0 -288.5 117.5t-100.5 320.5z" />
<glyph unicode="v" horiz-adv-x="884" d="M29 952q0 6 6 6h2q8 -1 16 -20l389 -924l389 924q8 21 17 21l5 -2q3 -2 3 -5l-399 -944q-3 -10 -15 -10q-11 0 -14 10z" />
<glyph unicode="w" horiz-adv-x="1314" d="M82 954q0 4 5 4h2q9 -1 14 -22q1 -1 1 -2l246 -918l289 748q5 16 18 16q14 0 19 -16l289 -748l245 918q6 24 16 24h1q6 0 6 -4l-254 -946q-3 -10 -14 -10q-12 0 -15 10l-293 756l-292 -756q-3 -10 -15 -10q-11 0 -14 10z" />
<glyph unicode="x" horiz-adv-x="884" d="M49 6l383 477l-379 465q-2 2 0.5 5t5.5 3q7 0 15 -8l368 -452l369 452q8 8 14 8q3 0 5.5 -3t0.5 -5l-378 -465l383 -477q1 -1 1 -2t-2 -3q-3 -3 -6 -3q-6 0 -14 8l-373 465l-372 -465q-8 -8 -15 -8q-3 0 -5 3q-1 2 -2 3q0 1 1 2z" />
<glyph unicode="y" horiz-adv-x="872" d="M27 952q-2 6 5 6q9 0 19 -20l400 -868l370 868q8 21 17 21l5 -2q3 -2 3 -5l-567 -1317q-4 -12 -13 -12q-8 0 -8 6l188 432q-10 0 -14 13z" />
<glyph unicode="z" horiz-adv-x="880" d="M61 10v2q0 7 13 23l708 905h-700q-10 0 -10 6v2q0 6 10 6h702q15 0 15 -10v-2q0 -6 -13 -22l-708 -906h731q10 0 10 -6v-2q0 -6 -10 -6h-733q-15 0 -15 10z" />
<glyph unicode="{" horiz-adv-x="727" d="M53 475q0 12 8 17l197 135q7 187 60.5 332.5t142.5 234.5q41 41 91 76t81 51t39 16q6 0 6 -6q0 -4 -4 -8q-125 -58 -210 -148t-134.5 -230t-55.5 -327l-208 -143l208 -143q6 -187 55.5 -327t134.5 -230t210 -148q4 -4 4 -8q0 -6 -6 -6q-8 0 -39 16t-81 51t-91 76 q-89 89 -142.5 235t-60.5 333l-197 135q-8 5 -8 16z" />
<glyph unicode="|" horiz-adv-x="405" d="M195 -367v1684q0 10 6 10h4q6 0 6 -10v-1684q0 -10 -6 -10h-4q-6 0 -6 10z" />
<glyph unicode="}" horiz-adv-x="727" d="M49 -381q0 4 4 8q125 58 210 148t134.5 230t55.5 327l209 143l-209 143q-6 187 -55.5 327t-134.5 230t-210 148q-4 4 -4 8q0 6 6 6q8 0 39 -16t81 -51t91 -76q89 -89 142.5 -234.5t60.5 -332.5l197 -135q8 -5 8 -17q0 -11 -8 -16l-197 -135q-7 -187 -60.5 -333 t-142.5 -235q-41 -41 -91 -76t-81 -51t-39 -16q-6 0 -6 6z" />
<glyph unicode="~" horiz-adv-x="1019" d="M279 379q13 84 39 122t69 38q35 0 63.5 -20t65.5 -60q25 -28 39 -41t35 -24t43 -11q32 0 54.5 30t31.5 83q7 36 16 36q2 0 6 -4q-13 -84 -39 -121.5t-69 -37.5q-35 0 -63.5 20t-65.5 60q-25 27 -39 40.5t-35 24t-43 10.5q-32 0 -54.5 -29.5t-31.5 -82.5q-7 -37 -16 -37 q-2 0 -6 4z" />
<glyph unicode="&#xa1;" horiz-adv-x="405" d="M178 1300v5q0 24 23 24h4q22 0 22 -24v-5q0 -24 -22 -24h-4q-23 0 -23 24zM195 8v963q0 26 6 26h2q6 0 6 -26l2 -963q0 -10 -6 -10h-4q-6 0 -6 10z" />
<glyph unicode="&#xa2;" horiz-adv-x="1042" d="M82 573q0 210 132 348.5t327 141.5v272q0 11 6 11h4q6 0 6 -11v-272q97 -1 178 -34t133 -85q25 -25 44.5 -54.5t27.5 -47.5t8 -23q0 -12 -12 -12q-30 95 -128 167t-251 75v-951q153 3 252 75t129 167q12 0 12 -12q0 -5 -8 -23t-27.5 -47.5t-44.5 -54.5q-52 -52 -134 -85 t-179 -34v-274q0 -11 -6 -11h-4q-6 0 -6 11v274q-196 3 -327.5 140.5t-131.5 348.5zM98 573q0 -205 127.5 -338.5t315.5 -136.5v951q-188 -3 -315.5 -138t-127.5 -338z" />
<glyph unicode="&#xa3;" horiz-adv-x="1126" d="M78 6v2q0 6 10 6h156l104 561h-235q-11 0 -11 7v2q0 6 11 6h237l56 297q44 242 128 351.5t242 109.5q132 0 209 -84q32 -33 49 -83t17 -94q0 -16 -15 -16q2 118 -69.5 190t-190.5 72q-152 0 -231.5 -106t-122.5 -340l-55 -297h452q10 0 10 -6v-2q0 -7 -10 -7h-454 l-105 -561h772q10 0 10 -6v-2q0 -6 -10 -6h-944q-10 0 -10 6z" />
<glyph unicode="&#xa4;" horiz-adv-x="1271" d="M76 504v2q0 6 10 6h203q-6 50 -6 104v93q0 59 6 114h-203q-10 0 -10 6v2q0 7 10 7h205q29 230 158.5 364.5t326.5 134.5q195 0 316 -125q37 -40 55 -82.5t18 -70.5q0 -8 -12 -8q-3 37 -25 80t-64 88t-117.5 74.5t-170.5 29.5q-189 0 -314.5 -131t-154.5 -354h541 q10 0 10 -7v-2q0 -6 -10 -6h-543q-6 -55 -6 -114v-93q0 -54 6 -104h543q10 0 10 -6v-2q0 -6 -10 -6h-541q28 -228 155 -362t322 -134q76 0 141 19t107.5 48.5t73.5 67t46 72.5t19 67q13 0 13 -8q0 -27 -19 -70.5t-59 -84.5q-121 -125 -322 -125q-202 0 -333.5 137.5 t-159.5 372.5h-205q-10 0 -10 6z" />
<glyph unicode="&#xa5;" horiz-adv-x="1052" d="M33 1319q0 4 3.5 6.5t8 1t8.5 -7.5l473 -703l473 703q9 15 20 6q3 -3 1 -6l-485 -717h409q10 0 10 -6v-2q0 -6 -10 -6h-409v-293h409q10 0 10 -6v-2q0 -6 -10 -6h-409v-273q0 -10 -7 -10h-4q-6 0 -6 10v273h-409q-11 0 -11 6v2q0 6 11 6h409v293h-409q-11 0 -11 6v2 q0 6 11 6h409z" />
<glyph unicode="&#xa7;" horiz-adv-x="935" d="M63 539q0 95 81 162.5t214 86.5q-59 16 -102 35.5t-81 49.5t-57.5 75.5t-19.5 104.5q0 123 103 203.5t264 80.5q201 0 315 -114q23 -23 38.5 -50.5t15.5 -37.5q0 -5 -4 -9t-9 -4q-23 79 -115.5 140t-240.5 61q-153 0 -251.5 -76.5t-98.5 -193.5q0 -32 7 -60t17 -50 t29.5 -41t37 -33t46.5 -27t51 -21t58 -18t60 -15t64 -14q57 -12 98.5 -23.5t89.5 -28t81 -37t61.5 -47.5t42.5 -63t14 -79q0 -94 -76 -162t-204 -90q117 -33 181.5 -92t64.5 -170q0 -127 -103.5 -208t-269.5 -81q-115 0 -195 30.5t-123 73.5q-32 32 -49.5 63t-17.5 44 q0 12 12 12q25 -89 120.5 -149t252.5 -60q156 0 256 78t100 197q0 36 -7 66.5t-24.5 54.5t-34.5 42.5t-48.5 34.5t-54 26.5t-64.5 22t-66.5 17t-72.5 16.5q-69 15 -117.5 28.5t-103 36.5t-88 50t-55.5 68.5t-22 93.5zM80 539q0 -49 21 -88t53 -65t85 -48t100.5 -35 t115.5 -27l104 -24q130 18 213.5 84t83.5 160q0 49 -21.5 88t-53.5 65t-85.5 48t-100.5 35t-116 28l-90 20q-135 -14 -222 -80t-87 -161z" />
<glyph unicode="&#xa8;" horiz-adv-x="1024" d="M348 1126q0 23 23 23q20 0 20 -23q0 -22 -22 -22q-21 0 -21 22zM633 1126q0 23 22 23q21 0 21 -23q0 -22 -23 -22q-20 0 -20 22z" />
<glyph unicode="&#xa9;" horiz-adv-x="1497" d="M92 659q0 193 84.5 348t235 242.5t338.5 87.5q291 0 473 -187t182 -484q0 -193 -84 -348t-234.5 -242.5t-338.5 -87.5q-291 0 -473.5 187t-182.5 484zM109 659q0 -291 177 -474t462 -183q184 0 330.5 85.5t228.5 237.5t82 341q0 291 -177 474t-462 183 q-184 0 -330.5 -85.5t-228.5 -237.5t-82 -341zM426 659q0 156 94 258.5t244 102.5q135 0 213 -78q24 -24 37.5 -51.5t13.5 -40.5q0 -8 -10 -8q-15 66 -80.5 115t-173.5 49q-146 0 -234 -99t-88 -248q0 -150 86.5 -247t239.5 -97q64 0 114 18t78.5 47.5t44 56.5t21.5 55 q10 0 10 -9q0 -15 -14 -46t-47 -64q-72 -72 -207 -72q-158 0 -250 100.5t-92 257.5z" />
<glyph unicode="&#xaa;" horiz-adv-x="800" d="M70 754q0 83 54 131.5t186 73t360 24.5v61q0 124 -73 201.5t-200 77.5q-107 0 -181 -43t-103 -113q-11 0 -11 11q0 22 48 73q90 86 247 86q136 0 212.5 -80t76.5 -213v-481q-2 -2 -6 -2q-10 0 -10 23v211q-22 -103 -115.5 -172.5t-224.5 -69.5q-117 0 -188.5 53.5 t-71.5 147.5zM86 754q0 -86 67.5 -136.5t176.5 -50.5q140 0 240 89t100 221v92q-222 0 -350 -23t-181 -69t-53 -123zM385 20v5q0 24 23 24h4q22 0 22 -24v-5q0 -24 -22 -24h-4q-23 0 -23 24z" />
<glyph unicode="&#xab;" horiz-adv-x="909" d="M82 489q0 8 192 156q177 139 185 139q6 0 6 -6q0 -3 -178 -143l-185 -146l185 -145q178 -140 178 -143q0 -6 -6 -6q-8 0 -185 139q-192 148 -192 155zM420 489q0 8 192 156q177 139 185 139q6 0 6 -6q0 -3 -178 -143l-185 -146l185 -145q178 -140 178 -143q0 -6 -6 -6 q-8 0 -185 139q-192 148 -192 155z" />
<glyph unicode="&#xad;" horiz-adv-x="647" d="M72 537v2q0 6 10 6h483q10 0 10 -6v-2q0 -7 -10 -7h-483q-10 0 -10 7z" />
<glyph unicode="&#xae;" horiz-adv-x="1497" d="M92 659q0 193 84.5 348t235 242.5t338.5 87.5q291 0 473 -187t182 -484q0 -193 -84 -348t-234.5 -242.5t-338.5 -87.5q-291 0 -473.5 187t-182.5 484zM109 659q0 -291 177 -474t462 -183q184 0 330.5 85.5t228.5 237.5t82 341q0 291 -177 474t-462 183 q-184 0 -330.5 -85.5t-228.5 -237.5t-82 -341zM547 330v678q0 16 14 16h184q123 0 186.5 -51t63.5 -144t-62.5 -143.5t-182.5 -50.5h-82l336 -305q1 -3 -1.5 -5.5t-5.5 -2.5q-8 0 -16 8l-330 305h-88v-305q0 -11 -6 -11h-4q-6 0 -6 11zM563 649h187q114 0 171.5 46.5 t57.5 133.5t-59 134t-175 47h-182v-361z" />
<glyph unicode="&#xaf;" horiz-adv-x="1024" d="M301 1159v2q0 6 10 6h402q10 0 10 -6v-2q0 -6 -10 -6h-402q-10 0 -10 6z" />
<glyph unicode="&#xb0;" horiz-adv-x="655" d="M102 1098v10q0 97 65 163t163 66t160.5 -65t62.5 -164v-8q0 -98 -65.5 -164t-163.5 -66t-160 64.5t-62 163.5zM119 1098q0 -93 57 -153t148 -60q92 0 152.5 61.5t60.5 153.5v8q0 93 -58 154t-149 61q-92 0 -151.5 -61.5t-59.5 -153.5v-10z" />
<glyph unicode="&#xb1;" horiz-adv-x="1228" d="M223 311v2q0 6 10 6h762q11 0 11 -6v-2q0 -6 -11 -6h-762q-10 0 -10 6zM281 821v4q0 6 10 6h315v316q0 10 6 10h4q7 0 7 -10v-316h315q10 0 10 -6v-4q0 -6 -10 -6h-315v-315q0 -11 -7 -11h-4q-6 0 -6 11v315h-315q-10 0 -10 6z" />
<glyph unicode="&#xb2;" horiz-adv-x="688" d="M102 1149q0 5 6 21.5t22 43.5t36 46q70 73 184 73q107 0 164 -55t57 -137q0 -79 -48 -123.5t-163 -99.5q-56 -27 -92 -49.5t-72.5 -56.5t-54.5 -78.5t-18 -100.5v-35h459q10 0 10 -6v-2q0 -6 -10 -6h-457q-16 0 -16 16v33q0 59 18 105.5t55.5 82t74 58.5t93.5 51 q45 21 69 33.5t55 33t46 39.5t26 46.5t11 60.5q0 74 -53.5 125t-153.5 51q-96 0 -156.5 -52t-76.5 -128q-3 -4 -9 -1t-6 11z" />
<glyph unicode="&#xb3;" horiz-adv-x="688" d="M74 729q0 10 12 10q14 -57 79 -104t163 -47q108 0 172.5 54t64.5 140q0 85 -62.5 135t-166.5 50h-103q-8 0 -8 6v2q0 6 8 6h105q88 0 144.5 46.5t56.5 119.5q0 75 -56.5 123.5t-154.5 48.5q-75 0 -139.5 -38.5t-82.5 -86.5q-12 0 -12 10q0 5 11 21.5t24 27.5 q80 80 199 80q104 0 165.5 -53t61.5 -133q0 -74 -48.5 -117.5t-111.5 -54.5q79 -12 133 -61.5t54 -131.5q0 -92 -69 -149.5t-185 -57.5q-129 0 -205 76q-23 23 -36 46.5t-13 31.5z" />
<glyph unicode="&#xb4;" horiz-adv-x="1024" d="M383 1098q-1 3 24.5 25t153.5 128q82 66 88 66q4 0 4 -6q0 -5 -11.5 -15t-72.5 -59q-82 -65 -123.5 -97t-51.5 -38t-11 -4z" />
<glyph unicode="&#xb6;" horiz-adv-x="1030" d="M84 1001q0 159 109 241.5t325 82.5h230q13 0 17.5 -5.5t4.5 -19.5v-1292q0 -10 -6 -10h-2q-6 0 -6 10v680h-228q-218 0 -331 78.5t-113 234.5zM848 8v1309q0 10 6 10h2q6 0 6 -10v-1309q0 -10 -6 -10h-2q-6 0 -6 10z" />
<glyph unicode="&#xb7;" horiz-adv-x="348" d="M150 535v4q0 24 22 24h4q23 0 23 -24v-4q0 -11 -6.5 -18t-16.5 -7h-4q-22 0 -22 25z" />
<glyph unicode="&#xb8;" horiz-adv-x="1024" d="M393 -375l135 271q7 14 15 14h2q6 0 6 -8v-2q0 -5 -8 -21l-140 -258q-2 -3 -6.5 -1.5t-3.5 5.5z" />
<glyph unicode="&#xb9;" horiz-adv-x="688" d="M123 590v2q0 6 8 6h225v678q-15 -37 -54 -60.5t-85 -23.5q-51 0 -78 27q-12 12 -12 18q0 8 8 8q19 -39 84 -39q54 0 96 35t43 86h7q8 0 8 -10v-719h213q8 0 8 -6v-2q0 -6 -8 -6h-455q-8 0 -8 6z" />
<glyph unicode="&#xba;" horiz-adv-x="880" d="M66 944q0 167 105.5 280t270.5 113q162 0 267.5 -113t105.5 -278q0 -167 -106 -280t-271 -113q-162 0 -267 113t-105 278zM82 944q0 -158 101 -267.5t255 -109.5q156 0 258.5 110.5t102.5 268.5t-101 267.5t-256 109.5q-156 0 -258 -110.5t-102 -268.5zM418 20v5 q0 24 22 24h4q23 0 23 -24v-5q0 -24 -23 -24h-4q-22 0 -22 24z" />
<glyph unicode="&#xbb;" horiz-adv-x="909" d="M106 201q0 3 58 48q19 15 31.5 24.5t38 30t51.5 40.5l184 145l-184 146q-56 44 -121 95q-42 33 -50 39.5t-8 8.5q0 6 7 6t184 -139q192 -152 192 -156q0 -3 -192 -155q-177 -139 -184 -139t-7 6zM444 201q0 3 58 48q19 15 31.5 24.5t38 30t51.5 40.5l184 145l-184 146 q-56 44 -121 95q-58 45 -58 48q0 6 7 6t184 -139q192 -152 192 -156q0 -3 -192 -155q-177 -139 -184 -139t-7 6z" />
<glyph unicode="&#xbc;" horiz-adv-x="1622" d="M123 590v2q0 6 8 6h225v678q-15 -37 -54 -60.5t-85 -23.5q-51 0 -78 27q-12 12 -12 18q0 8 8 8q19 -39 84 -39q54 0 96 35t43 86h7q8 0 8 -10v-719h213q8 0 8 -6v-2q0 -6 -8 -6h-455q-8 0 -8 6zM276 -49q0 4 9 16q366 450 528 651q62 77 205.5 256t240 299t99.5 121 q8 3 8 -6l-8 -18q-361 -447 -529 -652q-68 -83 -207.5 -258t-236.5 -296t-100 -121q-9 0 -9 8zM997 250v4q0 1 11 18l374 465q10 13 19 13q12 0 12 -13v-481h141q9 0 9 -6v-2q0 -6 -9 -6h-141v-236q0 -8 -6 -8h-2q-6 0 -6 8v236h-387q-15 0 -15 8zM1012 256h387v479z" />
<glyph unicode="&#xbd;" horiz-adv-x="1622" d="M123 590v2q0 6 8 6h225v678q-15 -37 -54 -60.5t-85 -23.5q-51 0 -78 27q-12 12 -12 18q0 8 8 8q19 -39 84 -39q54 0 96 35t43 86h7q8 0 8 -10v-719h213q8 0 8 -6v-2q0 -6 -8 -6h-455q-8 0 -8 6zM236 -49q0 5 8 16q366 450 528 651q62 77 205.5 256t240 299t99.5 121 q8 3 8 -6l-8 -18q-361 -447 -529 -652q-68 -83 -207.5 -258t-236.5 -296t-100 -121q-8 0 -8 8zM1036 565q0 5 6 21.5t22 43.5t36 46q71 74 184 74q107 0 164 -55.5t57 -137.5q0 -79 -48 -123.5t-163 -99.5q-56 -27 -92 -49.5t-72.5 -56.5t-54.5 -78.5t-18 -100.5v-35h459 q10 0 10 -6v-2q0 -6 -10 -6h-457q-17 0 -17 16v33q0 59 18.5 105.5t56 82t74 58.5t93.5 51q45 21 69 33.5t55 33t46 39.5t26 46.5t11 60.5q0 74 -53.5 125t-153.5 51q-96 0 -156.5 -52t-76.5 -128q-3 -4 -9 -1t-6 11z" />
<glyph unicode="&#xbe;" horiz-adv-x="1622" d="M74 729q0 10 12 10q14 -57 79 -104t163 -47q108 0 172.5 54t64.5 140q0 85 -62.5 135t-166.5 50h-103q-8 0 -8 6v2q0 6 8 6h105q88 0 144.5 46.5t56.5 119.5q0 75 -56.5 123.5t-154.5 48.5q-75 0 -139.5 -38.5t-82.5 -86.5q-12 0 -12 10q0 5 11 21.5t24 27.5 q80 80 199 80q104 0 165.5 -53t61.5 -133q0 -74 -48.5 -117.5t-111.5 -54.5q79 -12 133 -61.5t54 -131.5q0 -92 -69 -149.5t-185 -57.5q-129 0 -205 76q-23 23 -36 46.5t-13 31.5zM276 -49q0 4 9 16q366 450 528 651q62 77 205.5 256t240 299t99.5 121q8 3 8 -6l-8 -18 q-361 -447 -529 -652q-68 -83 -207.5 -258t-236.5 -296t-100 -121q-9 0 -9 8zM997 250v4q0 1 11 18l374 465q10 13 19 13q12 0 12 -13v-481h141q9 0 9 -6v-2q0 -6 -9 -6h-141v-236q0 -8 -6 -8h-2q-6 0 -6 8v236h-387q-15 0 -15 8zM1012 256h387v479z" />
<glyph unicode="&#xbf;" horiz-adv-x="913" d="M63 283q0 44 12 83t29 67.5t46 57t54 47t62 42.5q34 22 52 34t48 36t46 43.5t37 50.5t31.5 63.5t18 77.5t7.5 96q0 16 8 16t8 -16q0 -73 -15 -134t-35.5 -100t-57.5 -76t-63.5 -56.5t-71.5 -47.5q-45 -29 -75 -53t-61.5 -59t-47 -78t-15.5 -94q0 -112 93 -196.5 t261 -84.5q86 0 157 26t119 70.5t77 100t38 118.5q15 0 15 -12q0 -9 -6.5 -36t-31 -76.5t-61.5 -86.5q-118 -118 -307 -118q-174 0 -272.5 89.5t-98.5 205.5zM483 1300v5q0 24 23 24h4q22 0 22 -24v-5q0 -24 -22 -24h-4q-23 0 -23 24z" />
<glyph unicode="&#xc0;" d="M27 4l542 1313q3 10 15 10q11 0 14 -10l543 -1313q-1 -4 -4.5 -5.5t-8 2t-8.5 11.5l-211 510h-651l-211 -510q-9 -19 -17 -13zM264 537h639l-319 774zM393 1669q0 6 4 6q8 0 88 -65q127 -105 153.5 -128t25.5 -26q-1 -2 -11 4t-52.5 38.5t-123.5 96.5q-61 49 -72.5 59 t-11.5 15z" />
<glyph unicode="&#xc1;" d="M27 4l542 1313q3 10 15 10q11 0 14 -10l543 -1313q-1 -4 -4.5 -5.5t-8 2t-8.5 11.5l-211 510h-651l-211 -510q-9 -19 -17 -13zM264 537h639l-319 774zM489 1477q-1 3 20 21t159 132q82 66 88 66q4 0 4 -6q0 -5 -11.5 -15t-72.5 -59q-81 -64 -123.5 -96.5t-52.5 -38.5 t-11 -4z" />
<glyph unicode="&#xc2;" d="M27 4l542 1313q3 10 15 10q11 0 14 -10l543 -1313q-1 -4 -4.5 -5.5t-8 2t-8.5 11.5l-211 510h-651l-211 -510q-9 -19 -17 -13zM264 537h639l-319 774zM391 1427q0 3 96 140q89 125 97 125q7 0 96 -125q96 -137 96 -140q0 -6 -4 -6q-3 0 -5.5 2.5t-13.5 16.5t-29.5 39.5 l-55.5 76.5l-84 117l-84 -117q-46 -64 -68 -93.5t-28 -35.5t-9 -6q-4 0 -4 6z" />
<glyph unicode="&#xc3;" d="M27 4l542 1313q3 10 15 10q11 0 14 -10l543 -1313q-1 -4 -4.5 -5.5t-8 2t-8.5 11.5l-211 510h-651l-211 -510q-9 -19 -17 -13zM264 537h639l-319 774zM352 1470q13 84 39.5 122t69.5 38q35 0 63.5 -20t65.5 -60q25 -27 39 -40.5t35 -24t43 -10.5q32 0 54.5 29.5 t31.5 82.5q7 37 16 37q2 0 6 -4q-13 -84 -39 -122t-69 -38q-35 0 -63.5 20t-65.5 60q-25 28 -39 41t-35 24t-43 11q-32 0 -54.5 -30t-31.5 -83q-7 -37 -17 -37q-2 0 -6 4z" />
<glyph unicode="&#xc4;" d="M27 4l542 1313q3 10 15 10q11 0 14 -10l543 -1313q-1 -4 -4.5 -5.5t-8 2t-8.5 11.5l-211 510h-651l-211 -510q-9 -19 -17 -13zM264 537h639l-319 774zM424 1485q0 22 22 22q21 0 21 -22q0 -23 -23 -23q-20 0 -20 23zM709 1485q0 22 22 22q21 0 21 -22q0 -23 -23 -23 q-20 0 -20 23z" />
<glyph unicode="&#xc5;" d="M27 4l540 1307q-71 6 -115 57t-44 125q0 79 50.5 131.5t129.5 52.5t128.5 -52.5t49.5 -131.5q0 -74 -46.5 -125t-119.5 -57l541 -1307q-1 -4 -4.5 -5.5t-8 2t-8.5 11.5l-211 510h-651l-211 -510q-9 -19 -17 -13zM264 537h639l-319 774zM424 1493q0 -73 44 -120.5 t116 -47.5q73 0 119.5 47.5t46.5 120.5t-45 121.5t-117 48.5q-73 0 -118.5 -48.5t-45.5 -121.5z" />
<glyph unicode="&#xc6;" horiz-adv-x="1726" d="M27 4l540 1309q6 12 15 12h1007q10 0 10 -6v-2q0 -6 -10 -6h-989l258 -623h590q10 0 10 -6v-2q0 -6 -10 -6h-584l273 -660h514q10 0 10 -6v-2q0 -6 -10 -6h-514q-11 0 -17 12l-211 510h-651l-211 -510q-9 -19 -17 -13zM264 537h639l-319 774z" />
<glyph unicode="&#xc7;" horiz-adv-x="1329" d="M92 659q0 143 46 268t128.5 215.5t202.5 142.5t262 52q250 0 397 -147q45 -45 73 -98.5t28 -77.5q0 -8 -10 -8q-15 60 -51 113.5t-93.5 100.5t-146.5 75t-197 28q-184 0 -327 -88t-219 -238.5t-76 -337.5q0 -188 73.5 -336t217.5 -234.5t337 -86.5q102 0 185.5 24 t135.5 60t90.5 84.5t56 89.5t26.5 82q10 0 10 -8q0 -29 -28.5 -91t-86.5 -120t-158.5 -96.5t-230.5 -38.5q-198 0 -346 88t-223.5 239t-75.5 344zM569 -375l136 271q7 14 14 14h2q6 0 6 -8v-2q0 -5 -8 -21l-139 -258q-2 -3 -7 -1.5t-4 5.5z" />
<glyph unicode="&#xc8;" horiz-adv-x="1097" d="M168 25v1275q0 14 4.5 19.5t17.5 5.5h799q10 0 10 -6v-2q0 -6 -10 -6h-805v-623h578q10 0 10 -6v-2q0 -6 -10 -6h-578v-660h838q10 0 10 -6v-2q0 -6 -10 -6h-832q-13 0 -17.5 5.5t-4.5 19.5zM438 1690q0 6 4 6q6 0 88 -66q176 -148 179 -153q-1 -2 -11 4t-52.5 38.5 t-123.5 96.5q-61 49 -72.5 59t-11.5 15z" />
<glyph unicode="&#xc9;" horiz-adv-x="1097" d="M168 25v1275q0 14 4.5 19.5t17.5 5.5h799q10 0 10 -6v-2q0 -6 -10 -6h-805v-623h578q10 0 10 -6v-2q0 -6 -10 -6h-578v-660h838q10 0 10 -6v-2q0 -6 -10 -6h-832q-13 0 -17.5 5.5t-4.5 19.5zM498 1477q-1 3 24.5 25t153.5 128q82 66 88 66q4 0 4 -6q0 -5 -11.5 -15 t-72.5 -59q-82 -65 -123.5 -97t-51.5 -38t-11 -4z" />
<glyph unicode="&#xca;" horiz-adv-x="1097" d="M168 25v1275q0 14 4.5 19.5t17.5 5.5h799q10 0 10 -6v-2q0 -6 -10 -6h-805v-623h578q10 0 10 -6v-2q0 -6 -10 -6h-578v-660h838q10 0 10 -6v-2q0 -6 -10 -6h-832q-13 0 -17.5 5.5t-4.5 19.5zM412 1479q0 2 96 139q89 125 96 125t96 -125q97 -138 97 -139q0 -6 -4 -6 q-3 0 -9 6t-28 35.5t-68 93.5l-84 116l-84 -116l-55.5 -76.5t-29.5 -39.5t-13.5 -16.5t-5.5 -2.5q-4 0 -4 6z" />
<glyph unicode="&#xcb;" horiz-adv-x="1097" d="M168 25v1275q0 14 4.5 19.5t17.5 5.5h799q10 0 10 -6v-2q0 -6 -10 -6h-805v-623h578q10 0 10 -6v-2q0 -6 -10 -6h-578v-660h838q10 0 10 -6v-2q0 -6 -10 -6h-832q-13 0 -17.5 5.5t-4.5 19.5zM432 1505q0 23 23 23q20 0 20 -23q0 -22 -22 -22q-21 0 -21 22zM717 1505 q0 23 22 23q21 0 21 -23q0 -22 -23 -22q-20 0 -20 22z" />
<glyph unicode="&#xcc;" horiz-adv-x="393" d="M0 1669q0 6 4 6q8 0 88 -65q65 -54 99 -82.5t53 -45t23 -20.5t3 -6t-11 4t-51.5 38t-123.5 97q-61 49 -72.5 59t-11.5 15zM188 8v1309q0 10 7 10h4q6 0 6 -10v-1309q0 -10 -6 -10h-4q-7 0 -7 10z" />
<glyph unicode="&#xcd;" horiz-adv-x="393" d="M125 1456q-1 2 3 6t23 20.5t53 45t99 82.5q80 65 88 65q4 0 4 -6q0 -5 -11.5 -15t-72.5 -59q-82 -65 -123.5 -97t-51.5 -38t-11 -4zM188 8v1309q0 10 7 10h4q6 0 6 -10v-1309q0 -10 -6 -10h-4q-7 0 -7 10z" />
<glyph unicode="&#xce;" horiz-adv-x="393" d="M4 1458q0 2 96 139q89 125 97 125q7 0 96 -125q96 -137 96 -139q0 -6 -4 -6q-3 0 -5.5 2.5t-13.5 16.5t-29.5 39.5l-55.5 76.5l-84 117l-84 -117q-46 -64 -68 -93.5t-28 -35.5t-9 -6q-4 0 -4 6zM188 8v1309q0 10 7 10h4q6 0 6 -10v-1309q0 -10 -6 -10h-4q-7 0 -7 10z" />
<glyph unicode="&#xcf;" horiz-adv-x="393" d="M33 1505q0 23 22 23q21 0 21 -23q0 -22 -23 -22q-20 0 -20 22zM188 8v1309q0 10 7 10h4q6 0 6 -10v-1309q0 -10 -6 -10h-4q-7 0 -7 10zM317 1505q0 23 23 23q20 0 20 -23q0 -22 -22 -22q-21 0 -21 22z" />
<glyph unicode="&#xd0;" horiz-adv-x="1429" d="M72 659v3q0 6 10 6h209v632q0 14 4.5 19.5t17.5 5.5h312q335 0 523.5 -177t188.5 -482q0 -307 -192 -486.5t-531 -179.5h-301q-13 0 -17.5 5.5t-4.5 19.5v628h-209q-10 0 -10 6zM307 14h307q331 0 519 176t188 476q0 299 -184 472t-512 173h-318v-643h524q11 0 11 -6v-3 q0 -6 -11 -6h-524v-639z" />
<glyph unicode="&#xd1;" horiz-adv-x="1370" d="M168 8v1307q0 12 12 12h6q8 0 19 -16l981 -1291v1297q0 10 6 10h4q6 0 6 -10v-1311q0 -8 -10 -8h-4q-8 0 -19 16l-985 1297v-1303q0 -10 -6 -10h-4q-6 0 -6 10zM485 1448q13 84 39.5 122t69.5 38q35 0 63.5 -20t65.5 -60q25 -28 39 -41t35 -24t43 -11q32 0 54.5 30 t31.5 83q7 37 16 37q1 0 6 -5q-13 -84 -39 -121.5t-69 -37.5q-35 0 -63.5 20t-65.5 60q-25 27 -39 40.5t-35 24t-43 10.5q-32 0 -54.5 -29.5t-31.5 -82.5q-7 -37 -16 -37q-3 0 -7 4z" />
<glyph unicode="&#xd2;" horiz-adv-x="1460" d="M92 659q0 141 46 265t128 215.5t203 144.5t264 53q190 0 336 -90t222.5 -242t76.5 -341q0 -141 -45.5 -264.5t-127 -215t-202.5 -144t-264 -52.5t-263 52t-201.5 142t-127 213t-45.5 264zM109 659q0 -184 75 -332.5t217.5 -236.5t327.5 -88q140 0 257.5 52t197 141.5 t124 210.5t44.5 258t-44 257.5t-123 209.5t-196 140.5t-256 51.5q-140 0 -258 -52t-197.5 -142t-124 -211.5t-44.5 -258.5zM504 1690q0 6 4 6q6 0 88 -66q128 -106 153.5 -128t24.5 -25q-1 -2 -11 4t-51.5 38t-123.5 97q-61 49 -72.5 59t-11.5 15z" />
<glyph unicode="&#xd3;" horiz-adv-x="1460" d="M92 659q0 141 46 265t128 215.5t203 144.5t264 53q190 0 336 -90t222.5 -242t76.5 -341q0 -141 -45.5 -264.5t-127 -215t-202.5 -144t-264 -52.5t-263 52t-201.5 142t-127 213t-45.5 264zM109 659q0 -184 75 -332.5t217.5 -236.5t327.5 -88q140 0 257.5 52t197 141.5 t124 210.5t44.5 258t-44 257.5t-123 209.5t-196 140.5t-256 51.5q-140 0 -258 -52t-197.5 -142t-124 -211.5t-44.5 -258.5zM659 1477q-1 3 20 21t159 132q82 66 88 66q4 0 4 -6q0 -5 -11.5 -15t-72.5 -59q-81 -64 -123.5 -96.5t-52.5 -38.5t-11 -4z" />
<glyph unicode="&#xd4;" horiz-adv-x="1460" d="M92 659q0 141 46 265t128 215.5t203 144.5t264 53q190 0 336 -90t222.5 -242t76.5 -341q0 -141 -45.5 -264.5t-127 -215t-202.5 -144t-264 -52.5t-263 52t-201.5 142t-127 213t-45.5 264zM109 659q0 -184 75 -332.5t217.5 -236.5t327.5 -88q140 0 257.5 52t197 141.5 t124 210.5t44.5 258t-44 257.5t-123 209.5t-196 140.5t-256 51.5q-140 0 -258 -52t-197.5 -142t-124 -211.5t-44.5 -258.5zM522 1479q0 2 96 139q89 125 97 125q7 0 96 -125q96 -137 96 -139q0 -6 -4 -6q-3 0 -5.5 2.5t-13.5 16.5t-29.5 39.5l-55.5 76.5l-84 116l-84 -116 q-46 -64 -68 -93.5t-28 -35.5t-9 -6q-4 0 -4 6z" />
<glyph unicode="&#xd5;" horiz-adv-x="1460" d="M92 659q0 141 46 265t128 215.5t203 144.5t264 53q190 0 336 -90t222.5 -242t76.5 -341q0 -141 -45.5 -264.5t-127 -215t-202.5 -144t-264 -52.5t-263 52t-201.5 142t-127 213t-45.5 264zM109 659q0 -184 75 -332.5t217.5 -236.5t327.5 -88q140 0 257.5 52t197 141.5 t124 210.5t44.5 258t-44 257.5t-123 209.5t-196 140.5t-256 51.5q-140 0 -258 -52t-197.5 -142t-124 -211.5t-44.5 -258.5zM481 1481q13 84 39.5 121.5t69.5 37.5q35 0 64 -19.5t65 -59.5q25 -28 39 -41t35 -24t43 -11q32 0 54.5 29.5t31.5 82.5q7 37 16 37q2 0 6 -4 q-13 -84 -39 -122t-69 -38q-35 0 -63.5 20t-65.5 60q-25 28 -39 41t-35 24t-43 11q-32 0 -54.5 -30t-31.5 -83q-7 -36 -17 -36q-2 0 -6 4z" />
<glyph unicode="&#xd6;" horiz-adv-x="1460" d="M92 659q0 141 46 265t128 215.5t203 144.5t264 53q190 0 336 -90t222.5 -242t76.5 -341q0 -141 -45.5 -264.5t-127 -215t-202.5 -144t-264 -52.5t-263 52t-201.5 142t-127 213t-45.5 264zM109 659q0 -184 75 -332.5t217.5 -236.5t327.5 -88q140 0 257.5 52t197 141.5 t124 210.5t44.5 258t-44 257.5t-123 209.5t-196 140.5t-256 51.5q-140 0 -258 -52t-197.5 -142t-124 -211.5t-44.5 -258.5zM551 1505q0 23 22 23q21 0 21 -23q0 -22 -23 -22q-20 0 -20 22zM836 1505q0 23 22 23q21 0 21 -23q0 -22 -23 -22q-20 0 -20 22z" />
<glyph unicode="&#xd7;" horiz-adv-x="974" d="M154 195q-5 5 2 12l323 330l-323 329q-8 8 -2 13l2 2q5 5 12 -2l319 -334l320 334q7 7 12 2l2 -2q5 -5 -2 -13l-323 -329l323 -330q7 -7 2 -12l-2 -2q-5 -5 -12 2l-320 333l-319 -333q-7 -7 -12 -2z" />
<glyph unicode="&#xd8;" horiz-adv-x="1460" d="M92 659q0 141 45 265t125 215.5t198.5 144.5t258.5 53q239 0 405 -147l156 188q2 2 6 0.5t4 -6.5q0 -6 -10 -18l-143 -174q97 -93 149.5 -226.5t52.5 -289.5q0 -141 -44 -264.5t-123.5 -215t-197.5 -144t-259 -52.5q-256 0 -426 164l-183 -220q-2 -2 -6 0t-4 7q0 6 10 18 l170 207q-88 91 -136 219t-48 276zM109 659q0 -296 178 -483l827 1002q-161 145 -395 145q-137 0 -252.5 -52t-193 -142t-121 -211.5t-43.5 -258.5zM299 164q165 -162 416 -162q137 0 252 52t192.5 141.5t120.5 210.5t43 258q0 151 -51.5 281.5t-145.5 221.5z" />
<glyph unicode="&#xd9;" horiz-adv-x="1253" d="M147 502v815q0 10 7 10h4q6 0 6 -10v-815q0 -500 463 -500t463 500v815q0 10 6 10h4q6 0 6 -10v-815q0 -514 -479 -514q-480 0 -480 514zM432 1659q0 6 4 6q6 0 88 -66q128 -106 153.5 -128t24.5 -25q-1 -2 -11 4t-51.5 38t-123.5 97q-61 49 -72.5 59t-11.5 15z" />
<glyph unicode="&#xda;" horiz-adv-x="1253" d="M147 502v815q0 10 7 10h4q6 0 6 -10v-815q0 -500 463 -500t463 500v815q0 10 6 10h4q6 0 6 -10v-815q0 -514 -479 -514q-480 0 -480 514zM532 1446q-1 3 20 21t159 132q82 66 88 66q4 0 4 -6q0 -5 -11.5 -15t-72.5 -59q-81 -64 -123.5 -96.5t-52.5 -38.5t-11 -4z" />
<glyph unicode="&#xdb;" horiz-adv-x="1253" d="M147 502v815q0 10 7 10h4q6 0 6 -10v-815q0 -500 463 -500t463 500v815q0 10 6 10h4q6 0 6 -10v-815q0 -514 -479 -514q-480 0 -480 514zM426 1448q0 2 96 139q89 125 96 125q8 0 97 -125q96 -137 96 -139q0 -6 -4 -6q-3 0 -9 6t-28 35.5t-68 93.5l-84 117l-83 -117 q-46 -64 -68 -93.5t-28 -35.5t-9 -6q-4 0 -4 6z" />
<glyph unicode="&#xdc;" horiz-adv-x="1253" d="M147 502v815q0 10 7 10h4q6 0 6 -10v-815q0 -500 463 -500t463 500v815q0 10 6 10h4q6 0 6 -10v-815q0 -514 -479 -514q-480 0 -480 514zM455 1485q0 22 22 22q21 0 21 -22q0 -23 -23 -23q-20 0 -20 23zM739 1485q0 22 23 22q20 0 20 -22q0 -23 -22 -23q-21 0 -21 23z " />
<glyph unicode="&#xdd;" horiz-adv-x="1048" d="M10 1319q0 4 3.5 6.5t8.5 1t9 -7.5l493 -701l494 701q9 14 19 6q3 -4 1 -6l-506 -717v-594q0 -10 -6 -10h-4q-6 0 -6 10v594zM438 1436q-1 3 24.5 25t153.5 128q82 66 89 66q4 0 4 -6q0 -5 -11.5 -15t-72.5 -59q-81 -64 -123.5 -96.5t-52.5 -38.5t-11 -4z" />
<glyph unicode="&#xde;" horiz-adv-x="1103" d="M168 8v1309q0 10 6 10h4q6 0 6 -10v-266h348q236 0 358 -101.5t122 -279.5t-120.5 -279.5t-352.5 -101.5h-355v-281q0 -10 -6 -10h-4q-6 0 -6 10zM184 303h355q225 0 340.5 97.5t115.5 269.5t-117.5 269t-345.5 97h-348v-733z" />
<glyph unicode="&#xdf;" horiz-adv-x="993" d="M152 10v910q0 235 91.5 350.5t256.5 115.5q149 0 237 -94.5t88 -232.5q0 -136 -89.5 -220t-282.5 -94q452 -88 452 -403q0 -165 -89 -259.5t-232 -94.5q-162 0 -250 88q-26 26 -39.5 49t-13.5 33t10 10q25 -70 102.5 -118t190.5 -48q137 0 221 91t84 249q0 302 -438 389 q-17 2 -17 12q0 9 6 15q369 21 369 303q0 132 -83 221.5t-226 89.5q-158 0 -245 -113t-87 -339v-910q0 -12 -6 -12h-2q-8 0 -8 12z" />
<glyph unicode="&#xe0;" horiz-adv-x="1005" d="M78 233q0 104 67.5 165t231.5 91.5t448 30.5h21v82q0 161 -94 255.5t-254 94.5q-137 0 -234 -53t-135 -139q-10 0 -10 10q0 8 16.5 33t40.5 49q115 115 322 115q169 0 266.5 -98t97.5 -267v-600q0 -4 -6 -4q-10 0 -10 25v268q-27 -129 -146.5 -216t-289.5 -87 q-148 0 -240 65t-92 180zM94 233q0 -108 87.5 -169.5t228.5 -61.5q183 0 309.5 109t126.5 280v115h-21q-278 0 -438.5 -29.5t-226.5 -87.5t-66 -156zM338 1311q0 6 4 6q6 0 88 -66q128 -106 153.5 -128t24.5 -25q-1 -2 -11 4t-51.5 38t-123.5 97q-61 49 -72.5 59t-11.5 15z " />
<glyph unicode="&#xe1;" horiz-adv-x="1005" d="M78 233q0 104 67.5 165t231.5 91.5t448 30.5h21v82q0 161 -94 255.5t-254 94.5q-137 0 -234 -53t-135 -139q-10 0 -10 10q0 8 16.5 33t40.5 49q115 115 322 115q169 0 266.5 -98t97.5 -267v-600q0 -4 -6 -4q-10 0 -10 25v268q-27 -129 -146.5 -216t-289.5 -87 q-148 0 -240 65t-92 180zM94 233q0 -108 87.5 -169.5t228.5 -61.5q183 0 309.5 109t126.5 280v115h-21q-278 0 -438.5 -29.5t-226.5 -87.5t-66 -156zM379 1098q-1 3 24.5 25t153.5 128q82 66 88 66q4 0 4 -6q0 -5 -11.5 -15t-72.5 -59q-82 -65 -123.5 -97t-51.5 -38t-11 -4z " />
<glyph unicode="&#xe2;" horiz-adv-x="1005" d="M78 233q0 104 67.5 165t231.5 91.5t448 30.5h21v82q0 161 -94 255.5t-254 94.5q-137 0 -234 -53t-135 -139q-10 0 -10 10q0 8 16.5 33t40.5 49q115 115 322 115q169 0 266.5 -98t97.5 -267v-600q0 -4 -6 -4q-10 0 -10 25v268q-27 -129 -146.5 -216t-289.5 -87 q-148 0 -240 65t-92 180zM94 233q0 -108 87.5 -169.5t228.5 -61.5q183 0 309.5 109t126.5 280v115h-21q-278 0 -438.5 -29.5t-226.5 -87.5t-66 -156zM293 1100q0 2 96 139q89 125 96 125q8 0 97 -125q96 -137 96 -139q0 -6 -4 -6q-3 0 -9 6t-28 35.5t-68 93.5l-84 117 l-84 -117l-55.5 -76.5t-29.5 -39.5t-13.5 -16.5t-5.5 -2.5q-4 0 -4 6z" />
<glyph unicode="&#xe3;" horiz-adv-x="1005" d="M78 233q0 104 67.5 165t231.5 91.5t448 30.5h21v82q0 161 -94 255.5t-254 94.5q-137 0 -234 -53t-135 -139q-10 0 -10 10q0 8 16.5 33t40.5 49q115 115 322 115q169 0 266.5 -98t97.5 -267v-600q0 -4 -6 -4q-10 0 -10 25v268q-27 -129 -146.5 -216t-289.5 -87 q-148 0 -240 65t-92 180zM94 233q0 -108 87.5 -169.5t228.5 -61.5q183 0 309.5 109t126.5 280v115h-21q-278 0 -438.5 -29.5t-226.5 -87.5t-66 -156zM246 1102q13 84 39 122t69 38q35 0 63.5 -20t65.5 -60q25 -28 39 -41t35 -24t43 -11q32 0 54.5 30t31.5 83q7 36 16 36 q3 0 7 -4q-13 -84 -39.5 -121.5t-69.5 -37.5q-35 0 -64 19.5t-65 59.5q-25 28 -39 41t-35 24t-43 11q-32 0 -54.5 -29.5t-31.5 -82.5q-7 -37 -16 -37q-2 0 -6 4z" />
<glyph unicode="&#xe4;" horiz-adv-x="1005" d="M78 233q0 104 67.5 165t231.5 91.5t448 30.5h21v82q0 161 -94 255.5t-254 94.5q-137 0 -234 -53t-135 -139q-10 0 -10 10q0 8 16.5 33t40.5 49q115 115 322 115q169 0 266.5 -98t97.5 -267v-600q0 -4 -6 -4q-10 0 -10 25v268q-27 -129 -146.5 -216t-289.5 -87 q-148 0 -240 65t-92 180zM94 233q0 -108 87.5 -169.5t228.5 -61.5q183 0 309.5 109t126.5 280v115h-21q-278 0 -438.5 -29.5t-226.5 -87.5t-66 -156zM328 1126q0 23 22 23q21 0 21 -23q0 -22 -23 -22q-20 0 -20 22zM612 1126q0 23 23 23q20 0 20 -23q0 -22 -22 -22 q-21 0 -21 22z" />
<glyph unicode="&#xe5;" horiz-adv-x="1005" d="M78 233q0 104 67.5 165t231.5 91.5t448 30.5h21v82q0 161 -94 255.5t-254 94.5q-137 0 -234 -53t-135 -139q-10 0 -10 10q0 8 16.5 33t40.5 49q115 115 322 115q169 0 266.5 -98t97.5 -267v-600q0 -4 -6 -4q-10 0 -10 25v268q-27 -129 -146.5 -216t-289.5 -87 q-148 0 -240 65t-92 180zM94 233q0 -108 87.5 -169.5t228.5 -61.5q183 0 309.5 109t126.5 280v115h-21q-278 0 -438.5 -29.5t-226.5 -87.5t-66 -156zM322 1274q0 79 50.5 131.5t129.5 52.5t128.5 -52.5t49.5 -131.5q0 -78 -51.5 -130t-130.5 -52t-127.5 51.5t-48.5 130.5z M338 1274q0 -73 44 -120.5t116 -47.5q73 0 119.5 47.5t46.5 120.5t-45 121.5t-117 48.5q-73 0 -118.5 -48.5t-45.5 -121.5z" />
<glyph unicode="&#xe6;" horiz-adv-x="1785" d="M78 236q0 104 68.5 165.5t232.5 92t448 30.5h19v68q0 169 -93.5 264.5t-254.5 95.5q-137 0 -234 -53t-135 -139q-10 0 -10 10q0 8 16.5 33t40.5 49q115 115 322 115q171 0 266.5 -98.5t95.5 -282.5q31 168 152.5 274.5t283.5 106.5q174 0 293 -126.5t119 -312.5v-2 q0 -16 -16 -16h-830v-31q0 -204 124.5 -340.5t324.5 -136.5q76 0 141.5 23t109.5 60t72.5 78t40.5 83q11 0 11 -13q0 -8 -6.5 -25.5t-26.5 -48t-49 -59.5q-112 -112 -293 -112q-178 0 -300.5 105.5t-150.5 273.5q-7 -112 -70.5 -199.5t-163 -133.5t-216.5 -46 q-148 0 -240 66t-92 182zM94 236q0 -110 87.5 -172t228.5 -62q183 0 309.5 109t126.5 280v119h-19q-279 0 -439.5 -29t-227 -87.5t-66.5 -157.5zM864 524h830q0 183 -115 305.5t-283 122.5q-173 0 -295 -123.5t-137 -304.5z" />
<glyph unicode="&#xe7;" horiz-adv-x="1017" d="M82 479q0 135 57.5 245.5t167 176.5t252.5 66q194 0 307 -113q29 -29 49 -59.5t26.5 -48t6.5 -25.5q0 -12 -10 -12q-12 43 -40.5 83.5t-73 77.5t-114 59.5t-151.5 22.5q-207 0 -334 -136.5t-127 -336.5q0 -204 126.5 -340.5t334.5 -136.5q82 0 151.5 22.5t114 60t73 78 t40.5 83.5q10 0 10 -13q0 -8 -6.5 -25.5t-26.5 -48t-49 -59.5q-112 -112 -307 -112q-215 0 -346 140.5t-131 350.5zM420 -375l135 271q7 14 14 14h2q7 0 7 -8v-2q0 -3 -9 -21l-139 -258q-2 -3 -6.5 -1.5t-3.5 5.5z" />
<glyph unicode="&#xe8;" horiz-adv-x="1048" d="M82 479q0 133 59.5 244.5t167 177.5t238.5 66q185 0 304.5 -122.5t119.5 -309.5v-3q0 -16 -17 -16h-856v-37q0 -204 126.5 -340.5t334.5 -136.5q82 0 151.5 22.5t114 60t73 78t40.5 83.5q10 0 10 -13q0 -8 -6.5 -25.5t-26.5 -48t-49 -59.5q-112 -112 -307 -112 q-215 0 -346 140.5t-131 350.5zM100 530h856q0 183 -115.5 302.5t-293.5 119.5q-177 0 -303 -122t-144 -300zM344 1311q0 6 4 6q6 0 88 -66q128 -106 153.5 -128t24.5 -25q-1 -2 -11 4t-51.5 38t-123.5 97q-61 49 -72.5 59t-11.5 15z" />
<glyph unicode="&#xe9;" horiz-adv-x="1048" d="M82 479q0 133 59.5 244.5t167 177.5t238.5 66q185 0 304.5 -122.5t119.5 -309.5v-3q0 -16 -17 -16h-856v-37q0 -204 126.5 -340.5t334.5 -136.5q82 0 151.5 22.5t114 60t73 78t40.5 83.5q10 0 10 -13q0 -8 -6.5 -25.5t-26.5 -48t-49 -59.5q-112 -112 -307 -112 q-215 0 -346 140.5t-131 350.5zM100 530h856q0 183 -115.5 302.5t-293.5 119.5q-177 0 -303 -122t-144 -300zM481 1098q-1 3 24.5 25t153.5 128q82 66 89 66q4 0 4 -6q0 -5 -11.5 -15t-72.5 -59q-81 -64 -123.5 -96.5t-52.5 -38.5t-11 -4z" />
<glyph unicode="&#xea;" horiz-adv-x="1048" d="M82 479q0 133 59.5 244.5t167 177.5t238.5 66q185 0 304.5 -122.5t119.5 -309.5v-3q0 -16 -17 -16h-856v-37q0 -204 126.5 -340.5t334.5 -136.5q82 0 151.5 22.5t114 60t73 78t40.5 83.5q10 0 10 -13q0 -8 -6.5 -25.5t-26.5 -48t-49 -59.5q-112 -112 -307 -112 q-215 0 -346 140.5t-131 350.5zM100 530h856q0 183 -115.5 302.5t-293.5 119.5q-177 0 -303 -122t-144 -300zM338 1100q0 2 96 139q89 125 96 125q8 0 97 -125q96 -137 96 -139q0 -6 -4 -6q-3 0 -9 6t-28 35.5t-68 93.5l-84 117l-84 -117l-55.5 -76.5t-29.5 -39.5 t-13.5 -16.5t-5.5 -2.5q-4 0 -4 6z" />
<glyph unicode="&#xeb;" horiz-adv-x="1048" d="M82 479q0 133 59.5 244.5t167 177.5t238.5 66q185 0 304.5 -122.5t119.5 -309.5v-3q0 -16 -17 -16h-856v-37q0 -204 126.5 -340.5t334.5 -136.5q82 0 151.5 22.5t114 60t73 78t40.5 83.5q10 0 10 -13q0 -8 -6.5 -25.5t-26.5 -48t-49 -59.5q-112 -112 -307 -112 q-215 0 -346 140.5t-131 350.5zM100 530h856q0 183 -115.5 302.5t-293.5 119.5q-177 0 -303 -122t-144 -300zM369 1126q0 23 22 23q21 0 21 -23q0 -22 -23 -22q-20 0 -20 22zM653 1126q0 23 23 23q20 0 20 -23q0 -22 -22 -22q-21 0 -21 22z" />
<glyph unicode="&#xec;" horiz-adv-x="335" d="M-14 1311q0 6 4 6q6 0 88 -66q128 -106 153.5 -128t24.5 -25q-1 -2 -11 4t-51.5 38t-123.5 97q-61 49 -72.5 59t-11.5 15zM160 8v938q0 10 6 10h4q6 0 6 -10v-938q0 -10 -6 -10h-4q-6 0 -6 10z" />
<glyph unicode="&#xed;" horiz-adv-x="335" d="M82 1098q-1 3 24.5 25t153.5 128q82 66 88 66q4 0 4 -6q0 -5 -11.5 -15t-72.5 -59q-82 -65 -123.5 -97t-51.5 -38t-11 -4zM160 8v938q0 10 6 10h4q6 0 6 -10v-938q0 -10 -6 -10h-4q-6 0 -6 10z" />
<glyph unicode="&#xee;" horiz-adv-x="335" d="M-25 1079q0 2 97 140q88 124 96 124t96 -124q96 -137 96 -140q0 -6 -4 -6q-3 0 -5.5 2.5t-13.5 16.5t-29.5 39.5l-55.5 76.5l-84 117l-84 -117l-55.5 -76.5t-29.5 -39.5t-13.5 -16.5t-5.5 -2.5q-5 0 -5 6zM160 8v938q0 10 6 10h4q6 0 6 -10v-938q0 -10 -6 -10h-4 q-6 0 -6 10z" />
<glyph unicode="&#xef;" horiz-adv-x="335" d="M4 1126q0 23 23 23q20 0 20 -23q0 -22 -22 -22q-21 0 -21 22zM160 8v938q0 10 6 10h4q6 0 6 -10v-938q0 -10 -6 -10h-4q-6 0 -6 10zM289 1126q0 23 22 23q21 0 21 -23q0 -22 -23 -22q-20 0 -20 22z" />
<glyph unicode="&#xf0;" horiz-adv-x="1073" d="M82 416q0 199 122 309.5t324 110.5q158 0 281.5 -84.5t165.5 -204.5q0 209 -91.5 379.5t-250.5 277.5l-293 -170q-7 -3 -10 0l-2 4q-1 1 1 5t5 6l284 165q-222 141 -456 158q-1 1 -0.5 4t4 6.5t8.5 3.5q63 0 198 -39t263 -124l280 161q7 4 11 0l2 -4q1 -1 -1 -4.5 t-5 -5.5l-273 -158q150 -103 246 -273t96 -394q0 -259 -121.5 -408t-343.5 -149q-199 0 -321.5 115.5t-122.5 312.5zM98 416q0 -189 118 -301.5t310 -112.5q207 0 324 135.5t125 370.5q-36 128 -160 220.5t-287 92.5q-196 0 -313 -106t-117 -299z" />
<glyph unicode="&#xf1;" horiz-adv-x="1087" d="M152 8v944q0 4 6 4q10 0 10 -24v-223q43 113 146.5 185.5t240.5 72.5q188 0 288.5 -118t100.5 -321v-520q0 -10 -6 -10h-4q-6 0 -6 10v518q0 197 -95.5 311.5t-277.5 114.5q-136 0 -237.5 -73t-149.5 -201v-670q0 -10 -6 -10h-4q-6 0 -6 10zM319 1102q13 84 39.5 122 t69.5 38q35 0 63.5 -20t65.5 -60q25 -28 39 -41t35 -24t43 -11q32 0 54.5 30t31.5 83q7 36 16 36q2 0 6 -4q-13 -84 -39 -121.5t-69 -37.5q-35 0 -64 19.5t-65 59.5q-25 28 -39 41t-35 24t-43 11q-32 0 -54.5 -29.5t-31.5 -82.5q-7 -37 -16 -37q-3 0 -7 4z" />
<glyph unicode="&#xf2;" horiz-adv-x="1120" d="M82 477q0 134 60 246t170.5 178t248.5 66q137 0 247 -66.5t170 -179.5t60 -248q0 -205 -134.5 -345t-342.5 -140q-209 0 -344 141t-135 348zM98 477q0 -130 58.5 -238.5t165 -172.5t239.5 -64q132 0 238 63.5t164.5 171t58.5 236.5q0 200 -131 339.5t-330 139.5 q-133 0 -239.5 -64.5t-165 -173t-58.5 -237.5zM352 1311q0 6 4 6q6 0 88 -66q176 -148 179 -153q-1 -2 -11 4t-52.5 38.5t-123.5 96.5q-61 49 -72.5 59t-11.5 15z" />
<glyph unicode="&#xf3;" horiz-adv-x="1120" d="M82 477q0 134 60 246t170.5 178t248.5 66q137 0 247 -66.5t170 -179.5t60 -248q0 -205 -134.5 -345t-342.5 -140q-209 0 -344 141t-135 348zM98 477q0 -130 58.5 -238.5t165 -172.5t239.5 -64q132 0 238 63.5t164.5 171t58.5 236.5q0 200 -131 339.5t-330 139.5 q-133 0 -239.5 -64.5t-165 -173t-58.5 -237.5zM479 1098q-1 3 24.5 25t153.5 128q82 66 88 66q5 0 5 -6q0 -5 -11.5 -15t-72.5 -59q-81 -64 -123.5 -96.5t-52.5 -38.5t-11 -4z" />
<glyph unicode="&#xf4;" horiz-adv-x="1120" d="M82 477q0 134 60 246t170.5 178t248.5 66q137 0 247 -66.5t170 -179.5t60 -248q0 -205 -134.5 -345t-342.5 -140q-209 0 -344 141t-135 348zM98 477q0 -130 58.5 -238.5t165 -172.5t239.5 -64q132 0 238 63.5t164.5 171t58.5 236.5q0 200 -131 339.5t-330 139.5 q-133 0 -239.5 -64.5t-165 -173t-58.5 -237.5zM356 1100q0 1 97 139q89 125 96 125t96 -125q96 -137 96 -139q0 -6 -4 -6q-3 0 -5.5 2.5t-13.5 16.5t-29.5 39.5l-55.5 76.5l-84 117l-84 -117q-46 -64 -68 -93.5t-28 -35.5t-9 -6q-4 0 -4 6z" />
<glyph unicode="&#xf5;" horiz-adv-x="1120" d="M82 477q0 134 60 246t170.5 178t248.5 66q137 0 247 -66.5t170 -179.5t60 -248q0 -205 -134.5 -345t-342.5 -140q-209 0 -344 141t-135 348zM98 477q0 -130 58.5 -238.5t165 -172.5t239.5 -64q132 0 238 63.5t164.5 171t58.5 236.5q0 200 -131 339.5t-330 139.5 q-133 0 -239.5 -64.5t-165 -173t-58.5 -237.5zM317 1102q13 84 39.5 122t69.5 38q35 0 63.5 -20t65.5 -60q25 -28 39 -41t35 -24t43 -11q32 0 54.5 30t31.5 83q7 36 16 36q2 0 6 -4q-13 -84 -39 -121.5t-69 -37.5q-35 0 -64 19.5t-65 59.5q-25 28 -39 41t-35 24t-43 11 q-32 0 -54.5 -29.5t-31.5 -82.5q-7 -37 -16 -37q-3 0 -7 4z" />
<glyph unicode="&#xf6;" horiz-adv-x="1120" d="M82 477q0 134 60 246t170.5 178t248.5 66q137 0 247 -66.5t170 -179.5t60 -248q0 -205 -134.5 -345t-342.5 -140q-209 0 -344 141t-135 348zM98 477q0 -130 58.5 -238.5t165 -172.5t239.5 -64q132 0 238 63.5t164.5 171t58.5 236.5q0 200 -131 339.5t-330 139.5 q-133 0 -239.5 -64.5t-165 -173t-58.5 -237.5zM385 1126q0 23 23 23q20 0 20 -23q0 -22 -22 -22q-21 0 -21 22zM670 1126q0 23 22 23q21 0 21 -23q0 -22 -23 -22q-20 0 -20 22z" />
<glyph unicode="&#xf7;" horiz-adv-x="1228" d="M199 537v2q0 6 10 6h811q10 0 10 -6v-2q0 -7 -10 -7h-811q-10 0 -10 7zM590 297v4q0 25 22 25h4q10 0 16.5 -7t6.5 -18v-4q0 -11 -6.5 -18t-16.5 -7h-4q-22 0 -22 25zM590 774v4q0 25 22 25h4q10 0 16.5 -7t6.5 -18v-4q0 -24 -23 -24h-4q-22 0 -22 24z" />
<glyph unicode="&#xf8;" horiz-adv-x="1120" d="M82 477q0 134 60 246t170.5 178t248.5 66q193 0 324 -125l141 155q1 1 3 0.5t3.5 -3t1.5 -5.5q0 -6 -10 -16l-129 -142q68 -68 105.5 -160.5t37.5 -197.5q0 -205 -134.5 -345t-342.5 -140q-192 0 -323 121l-144 -156q-1 -1 -3 -0.5t-3.5 3t-1.5 5.5q0 6 10 16l129 142 q-68 68 -105.5 160.5t-37.5 197.5zM98 477q0 -100 36.5 -189.5t101.5 -156.5l638 698q-129 123 -313 123q-133 0 -239.5 -64.5t-165 -173t-58.5 -237.5zM248 121q129 -119 313 -119q132 0 238 63.5t164.5 171t58.5 236.5q0 100 -36 189.5t-101 156.5z" />
<glyph unicode="&#xf9;" horiz-adv-x="1087" d="M143 426v520q0 10 7 10h4q6 0 6 -10v-518q0 -197 95 -311.5t277 -114.5q136 0 238 73t150 201v670q0 10 6 10h4q6 0 6 -10v-944q0 -4 -6 -4q-10 0 -10 25v223q-43 -113 -147 -185.5t-241 -72.5q-188 0 -288.5 117.5t-100.5 320.5zM375 1290q0 6 4 6q8 0 88 -65 q65 -54 99 -82.5t53 -45t23 -20.5t3 -6q-1 -1 -3 -0.5t-8.5 5t-18.5 13.5t-32.5 25t-50.5 39.5t-73 57.5q-65 52 -74.5 60.5t-9.5 12.5z" />
<glyph unicode="&#xfa;" horiz-adv-x="1087" d="M143 426v520q0 10 7 10h4q6 0 6 -10v-518q0 -197 95 -311.5t277 -114.5q136 0 238 73t150 201v670q0 10 6 10h4q6 0 6 -10v-944q0 -4 -6 -4q-10 0 -10 25v223q-43 -113 -147 -185.5t-241 -72.5q-188 0 -288.5 117.5t-100.5 320.5zM461 1077q-1 2 3 6t23 20.5t53 45 t99 82.5q80 65 88 65q4 0 4 -6q0 -4 -9.5 -12.5t-74.5 -60.5q-43 -34 -73 -57.5t-50.5 -39.5t-32.5 -25t-18.5 -13.5t-8.5 -5t-3 0.5z" />
<glyph unicode="&#xfb;" horiz-adv-x="1087" d="M143 426v520q0 10 7 10h4q6 0 6 -10v-518q0 -197 95 -311.5t277 -114.5q136 0 238 73t150 201v670q0 10 6 10h4q6 0 6 -10v-944q0 -4 -6 -4q-10 0 -10 25v223q-43 -113 -147 -185.5t-241 -72.5q-188 0 -288.5 117.5t-100.5 320.5zM356 1079q0 2 97 140q88 124 96 124 t96 -124q96 -137 96 -140q0 -6 -4 -6q-3 0 -5.5 2.5t-13.5 16.5t-29.5 39.5l-55.5 76.5l-84 117l-84 -117q-46 -64 -68 -93.5t-28 -35.5t-9 -6q-4 0 -4 6z" />
<glyph unicode="&#xfc;" horiz-adv-x="1087" d="M143 426v520q0 10 7 10h4q6 0 6 -10v-518q0 -197 95 -311.5t277 -114.5q136 0 238 73t150 201v670q0 10 6 10h4q6 0 6 -10v-944q0 -4 -6 -4q-10 0 -10 25v223q-43 -113 -147 -185.5t-241 -72.5q-188 0 -288.5 117.5t-100.5 320.5zM383 1106q0 22 23 22q20 0 20 -22 q0 -23 -23 -23q-20 0 -20 23zM668 1106q0 22 22 22q21 0 21 -22q0 -23 -23 -23q-20 0 -20 23z" />
<glyph unicode="&#xfd;" horiz-adv-x="872" d="M27 952q-2 6 5 6q9 0 19 -20l400 -868l370 868q11 27 22 19q3 -2 3 -5l-567 -1317q-4 -12 -13 -12q-8 0 -8 6l188 432q-10 0 -14 13zM381 1057q-1 3 24.5 25t153.5 128q82 66 88 66q4 0 4 -6q0 -5 -11.5 -15t-72.5 -59q-82 -65 -123.5 -97t-51.5 -38t-11 -4z" />
<glyph unicode="&#xfe;" horiz-adv-x="1142" d="M152 -365v1737q0 4 6 4q10 0 10 -24v-705q41 137 154 228.5t274 91.5q129 0 236 -63.5t168 -174t61 -244.5q0 -219 -130 -358t-335 -139q-89 0 -164.5 25.5t-128.5 69.5t-87.5 99t-47.5 117v-664q0 -12 -6 -12h-2q-8 0 -8 12zM168 399q0 -163 119 -280t309 -117 q199 0 323.5 135.5t124.5 347.5q0 197 -129.5 332t-318.5 135q-161 0 -272.5 -93.5t-155.5 -248.5v-211z" />
<glyph unicode="&#xff;" horiz-adv-x="872" d="M27 952q-2 6 5 6q9 0 19 -20l400 -868l370 868q11 27 22 19q3 -2 3 -5l-567 -1317q-4 -12 -13 -12q-8 0 -8 6l188 432q-10 0 -14 13zM266 1126q0 23 23 23q20 0 20 -23q0 -22 -22 -22q-21 0 -21 22zM551 1126q0 23 22 23q21 0 21 -23q0 -22 -23 -22q-20 0 -20 22z" />
<glyph unicode="&#x152;" horiz-adv-x="2017" d="M92 659q0 187 78.5 340t222.5 241.5t326 88.5q22 0 72 -4h1118q10 0 10 -6v-2q0 -6 -10 -6h-1032q203 -51 328.5 -221.5t133.5 -401.5h414q10 0 10 -6v-2q0 -6 -10 -6h-414v-10q0 -242 -127.5 -420t-339.5 -230h1070q10 0 10 -6v-2q0 -6 -10 -6h-1156q-50 -4 -71 -4 q-181 0 -324 87t-221 238t-78 338zM109 659q0 -182 75.5 -330t214.5 -233.5t316 -85.5t317 87t215.5 235.5t75.5 331.5t-75 331t-214 234t-315 86q-177 0 -317.5 -87.5t-216.5 -236.5t-76 -332z" />
<glyph unicode="&#x153;" horiz-adv-x="1931" d="M82 477q0 134 60 246t167.5 178t237.5 66q171 0 297.5 -115t154.5 -295q25 180 149 295t294 115q173 0 292 -125t119 -307v-3q0 -16 -16 -16h-829v-41q0 -130 54.5 -237.5t157.5 -171.5t236 -64q76 0 142 23t110 60t72.5 78t40.5 83q10 0 10 -13q0 -8 -6.5 -25.5 t-26.5 -48t-49 -59.5q-112 -112 -293 -112q-184 0 -307 111.5t-150 293.5q-26 -179 -151 -292t-301 -113q-133 0 -240 65.5t-166 177t-59 246.5zM98 477q0 -199 127.5 -337t321.5 -138q191 0 317.5 137t126.5 336q0 197 -128.5 337t-315.5 140q-190 0 -319.5 -139 t-129.5 -336zM1010 530h829q0 179 -114.5 300.5t-282.5 121.5q-171 0 -292 -120.5t-140 -301.5z" />
<glyph unicode="&#x178;" horiz-adv-x="1048" d="M10 1319q0 4 3.5 6.5t8.5 1t9 -7.5l493 -701l494 701q9 14 19 6q3 -4 1 -6l-506 -717v-594q0 -10 -6 -10h-4q-6 0 -6 10v594zM360 1505q0 23 23 23q20 0 20 -23q0 -22 -22 -22q-21 0 -21 22zM645 1505q0 23 23 23q20 0 20 -23q0 -22 -22 -22q-21 0 -21 22z" />
<glyph unicode="&#x2c6;" horiz-adv-x="1024" d="M319 1100q0 1 97 139q89 125 96 125t96 -125q97 -138 97 -139q0 -6 -5 -6q-3 0 -5.5 2.5t-13.5 16.5t-29.5 39.5l-55.5 76.5l-84 117l-84 -117l-55.5 -76.5t-29.5 -39.5t-13.5 -16.5t-5.5 -2.5q-5 0 -5 6z" />
<glyph unicode="&#x2dc;" horiz-adv-x="1024" d="M279 1102q13 84 39 122t69 38q35 0 63.5 -20t65.5 -60q25 -28 39 -41t35 -24t43 -11q32 0 54.5 30t31.5 83q7 36 16 36q2 0 6 -4q-13 -84 -39 -121.5t-69 -37.5q-35 0 -64 19.5t-65 59.5q-25 28 -39 41t-35 24t-43 11q-32 0 -54.5 -29.5t-31.5 -82.5q-7 -37 -16 -37 q-2 0 -6 4z" />
<glyph unicode="&#x2000;" horiz-adv-x="871" />
<glyph unicode="&#x2001;" horiz-adv-x="1743" />
<glyph unicode="&#x2002;" horiz-adv-x="871" />
<glyph unicode="&#x2003;" horiz-adv-x="1743" />
<glyph unicode="&#x2004;" horiz-adv-x="581" />
<glyph unicode="&#x2005;" horiz-adv-x="435" />
<glyph unicode="&#x2006;" horiz-adv-x="290" />
<glyph unicode="&#x2007;" horiz-adv-x="290" />
<glyph unicode="&#x2008;" horiz-adv-x="217" />
<glyph unicode="&#x2009;" horiz-adv-x="348" />
<glyph unicode="&#x200a;" horiz-adv-x="96" />
<glyph unicode="&#x2010;" horiz-adv-x="647" d="M72 537v2q0 6 10 6h483q10 0 10 -6v-2q0 -7 -10 -7h-483q-10 0 -10 7z" />
<glyph unicode="&#x2011;" horiz-adv-x="647" d="M72 537v2q0 6 10 6h483q10 0 10 -6v-2q0 -7 -10 -7h-483q-10 0 -10 7z" />
<glyph unicode="&#x2012;" horiz-adv-x="647" d="M72 537v2q0 6 10 6h483q10 0 10 -6v-2q0 -7 -10 -7h-483q-10 0 -10 7z" />
<glyph unicode="&#x2013;" horiz-adv-x="913" d="M72 537v2q0 6 10 6h749q11 0 11 -6v-2q0 -7 -11 -7h-749q-10 0 -10 7z" />
<glyph unicode="&#x2014;" horiz-adv-x="1224" d="M72 537v2q0 6 10 6h1061q10 0 10 -6v-2q0 -7 -10 -7h-1061q-10 0 -10 7z" />
<glyph unicode="&#x2018;" horiz-adv-x="342" d="M98 969v2q0 4 4 16l121 338q1 2 4.5 2t6.5 -1.5t2 -4.5l-115 -346q-6 -14 -12 -14h-3q-8 0 -8 8z" />
<glyph unicode="&#x2019;" horiz-adv-x="342" d="M106 967l115 346q6 14 12 14h3q8 0 8 -8v-2q0 -5 -4 -17l-121 -337q-1 -2 -4.5 -2t-6.5 1.5t-2 4.5z" />
<glyph unicode="&#x201a;" horiz-adv-x="307" d="M41 -297l115 346q6 14 12 14h2q8 0 8 -8v-2q0 -4 -4 -16l-121 -338q-2 -3 -7.5 -1.5t-4.5 5.5z" />
<glyph unicode="&#x201c;" horiz-adv-x="557" d="M98 969v2q0 4 4 16l121 338q1 2 4.5 2t6.5 -1.5t2 -4.5l-115 -346q-6 -14 -12 -14h-3q-8 0 -8 8zM313 969v2q0 4 4 16l121 338q1 2 4.5 2t6.5 -1.5t2 -4.5l-115 -346q-6 -14 -12 -14h-2q-9 0 -9 8z" />
<glyph unicode="&#x201d;" horiz-adv-x="557" d="M106 967l115 346q6 14 12 14h3q8 0 8 -8v-2q0 -5 -4 -17l-121 -337q-1 -2 -4.5 -2t-6.5 1.5t-2 4.5zM322 967l114 346q6 14 13 14h2q8 0 8 -8v-2q0 -5 -4 -17l-121 -337q-2 -3 -7.5 -1.5t-4.5 5.5z" />
<glyph unicode="&#x201e;" horiz-adv-x="522" d="M41 -297l115 346q6 14 12 14h2q8 0 8 -8v-2q0 -4 -4 -16l-121 -338q-2 -3 -7.5 -1.5t-4.5 5.5zM256 -297l115 346q6 14 12 14h2q8 0 8 -8v-2q0 -4 -4 -16l-121 -338q-1 -2 -4.5 -2t-6 1.5t-1.5 4.5z" />
<glyph unicode="&#x2022;" horiz-adv-x="499" d="M145 537q0 44 30.5 75t74.5 31t74 -31t30 -75q0 -45 -30 -76t-74 -31t-74.5 31.5t-30.5 75.5z" />
<glyph unicode="&#x2026;" horiz-adv-x="921" d="M129 20v5q0 24 23 24h4q22 0 22 -24v-5q0 -24 -22 -24h-4q-23 0 -23 24zM436 20v5q0 24 23 24h4q22 0 22 -24v-5q0 -24 -22 -24h-4q-23 0 -23 24zM743 20v5q0 24 23 24h4q23 0 23 -24v-5q0 -24 -23 -24h-4q-23 0 -23 24z" />
<glyph unicode="&#x202f;" horiz-adv-x="348" />
<glyph unicode="&#x2039;" horiz-adv-x="571" d="M82 489q0 8 192 156q177 139 185 139q6 0 6 -6q0 -3 -178 -143l-185 -146l185 -145q178 -140 178 -143q0 -6 -6 -6q-8 0 -185 139q-192 148 -192 155z" />
<glyph unicode="&#x203a;" horiz-adv-x="571" d="M106 201q0 3 58 48q19 15 31.5 24.5t38 30t51.5 40.5l184 145l-184 146q-56 44 -121 95q-42 33 -50 39.5t-8 8.5q0 6 7 6t184 -139q192 -152 192 -156q0 -3 -192 -155q-177 -139 -184 -139t-7 6z" />
<glyph unicode="&#x205f;" horiz-adv-x="435" />
<glyph unicode="&#x20ac;" horiz-adv-x="1271" d="M76 504v2q0 6 10 6h203q-6 50 -6 104v93q0 59 6 114h-203q-10 0 -10 6v2q0 7 10 7h205q29 230 158.5 364.5t326.5 134.5q195 0 316 -125q37 -40 55 -82.5t18 -70.5q0 -8 -12 -8q-3 37 -25 80t-64 88t-117.5 74.5t-170.5 29.5q-189 0 -314.5 -131t-154.5 -354h541 q10 0 10 -7v-2q0 -6 -10 -6h-543q-6 -55 -6 -114v-93q0 -54 6 -104h543q10 0 10 -6v-2q0 -6 -10 -6h-541q28 -228 155 -362t322 -134q76 0 141 19t107.5 48.5t73.5 67t46 72.5t19 67q13 0 13 -8q0 -27 -19 -70.5t-59 -84.5q-121 -125 -322 -125q-202 0 -333.5 137.5 t-159.5 372.5h-205q-10 0 -10 6z" />
<glyph unicode="&#x2122;" horiz-adv-x="1220" d="M16 1317v2q0 6 9 6h475q8 0 8 -6v-2q0 -6 -8 -6h-230v-598q0 -11 -6 -11h-4q-6 0 -6 11v598h-229q-9 0 -9 6zM602 713v602q0 12 10 12h2q10 0 17 -12l241 -404l242 404q7 12 16 12h3q10 0 10 -12v-602q0 -11 -6 -11h-4q-7 0 -7 11v594l-239 -404q-7 -10 -15 -10 q-7 0 -14 10l-240 404v-594q0 -11 -6 -11h-4q-6 0 -6 11z" />
<glyph unicode="&#x25fc;" horiz-adv-x="952" d="M0 0v952h952v-952h-952z" />
</font>
</defs>
</svg>
